<svg width="294" height="54" viewBox="0 0 294 54" fill="none" xmlns="http://www.w3.org/2000/svg">
<path d="M41.9861 19.6081C40.7955 18.782 39.7993 17.6157 39.1919 16.3036V16.2793C38.4873 14.7972 38.4873 12.9992 38.4873 9.4032V7.71984C38.4873 7.20317 38.1178 6.76042 37.6094 6.668C36.9532 6.54868 36.3491 7.05283 36.3491 7.71984V9.01438C36.3491 12.6104 36.3491 14.4084 35.6445 15.6476C35.037 16.741 34.0651 17.5671 32.8503 17.9559C31.4896 18.4175 29.6916 18.1017 26.0955 17.4456L24.758 17.2059C24.1128 17.0902 23.52 17.5862 23.52 18.2417C23.52 18.7512 23.8851 19.1876 24.3867 19.2775L26.0955 19.5838L26.2767 19.6168C29.7523 20.2507 31.5126 20.5718 32.8503 21.5033C34.0408 22.3294 35.037 23.4957 35.6445 24.8078C36.3491 26.2899 36.3491 28.0879 36.3491 31.684V33.3673C36.3491 33.8839 36.7186 34.3267 37.2269 34.4191C37.8832 34.5384 38.4873 34.0343 38.4873 33.3673V32.0727C38.4873 28.4767 38.4873 26.6787 39.1919 25.4395C39.7993 24.3461 40.7712 23.52 41.9861 23.1312C43.3468 22.6696 45.1448 22.9855 48.7408 23.6415C49.0405 23.6956 49.1903 23.7226 49.3212 23.753C51.6443 24.2939 53.328 26.3085 53.4478 28.6908C53.4545 28.8249 53.4545 28.9772 53.4545 29.2817V43.1913C53.4545 46.7838 53.4545 48.58 52.7554 49.9521C52.1404 51.1591 51.1591 52.1404 49.9521 52.7554C48.58 53.4546 46.7838 53.4546 43.1913 53.4546H10.2633C6.67079 53.4546 4.87455 53.4546 3.5024 52.7554C2.29543 52.1404 1.31413 51.1591 0.699144 49.9521C0 48.58 0 46.7838 0 43.1913V38.1315C0 36.0248 0 34.9714 0.43093 34.2263C0.80902 33.5726 1.40565 33.0733 2.11574 32.8163C2.92507 32.5234 3.96196 32.7089 6.03572 33.0801L8.55273 33.5306C10.5451 33.8708 11.5413 34.0651 12.3188 34.5268C13.3636 35.1342 14.1898 36.1304 14.6271 37.2481C14.8919 37.9609 14.9347 38.7761 14.9416 40.1945C14.9442 40.7112 15.3125 41.1543 15.8208 41.2467C16.4771 41.366 17.0777 40.8614 17.0856 40.1944C17.0996 39.0171 17.1576 38.3109 17.397 37.7584C17.8344 36.7865 18.6605 36.1061 19.7053 35.8631C20.4828 35.6931 21.479 35.8631 23.4714 36.2276L24.3696 36.3909C25.0152 36.5083 25.6096 36.0123 25.6096 35.356C25.6096 34.8477 25.246 34.4121 24.7459 34.3212L23.4714 34.0894C21.479 33.7493 20.4828 33.5549 19.7053 33.0932C18.6605 32.4858 17.8344 31.4896 17.397 30.3719C17.1323 29.6591 17.0894 28.8439 17.0825 27.4255C17.08 26.9088 16.7117 26.4657 16.2033 26.3733C15.5471 26.254 14.9464 26.7586 14.9385 27.4256C14.9245 28.6029 14.8666 29.3091 14.6271 29.8617C14.1898 30.8336 13.3636 31.5139 12.3188 31.7569C11.5413 31.9269 10.5451 31.7569 8.55273 31.3924L7.04593 31.1227C4.54023 30.6743 3.28738 30.45 2.34835 29.8142C1.52048 29.2536 0.866418 28.4721 0.460465 27.5584C0 26.522 0 25.2493 0 22.7038V10.2633C0 6.67079 0 4.87455 0.699144 3.5024C1.31413 2.29543 2.29543 1.31413 3.5024 0.699144C4.87455 0 6.67079 0 10.2633 0H43.1913C46.7838 0 48.58 0 49.9521 0.699144C51.1591 1.31413 52.1404 2.29543 52.7554 3.5024C53.4545 4.87455 53.4545 6.67079 53.4545 10.2633V17.5882C53.4545 18.4559 53.4545 18.8897 53.3793 19.2309C53.0652 20.6558 51.8288 21.6891 50.3708 21.7452C50.0216 21.7587 49.5947 21.6817 48.7408 21.5276L48.5597 21.4946C45.084 20.8607 43.3237 20.5397 41.9861 19.6081Z" fill="#FAF7F4"/>
<path d="M93.2778 25.8202C91.4069 24.7268 89.05 23.9736 86.2558 23.5848L79.8899 22.7101C77.8489 22.3942 76.1238 21.9083 74.7631 21.2279C73.4024 20.5476 72.3819 19.7215 71.7259 18.6767C71.0456 17.6562 70.7297 16.4413 70.7297 15.0564C70.7297 13.3555 71.1671 11.8734 72.0661 10.6099C72.9651 9.34645 74.2529 8.37455 75.9537 7.69422C77.6545 7.01389 79.5983 6.69802 81.7851 6.69802C83.9719 6.69802 86.0372 7.03818 87.7137 7.69422C89.3902 8.37455 90.7023 9.32215 91.6256 10.5613C92.5732 11.8005 93.0591 13.3069 93.1077 15.0564H98.3317C98.2831 12.4322 97.6028 10.1483 96.2664 8.20446C94.93 6.26066 93.0105 4.77851 90.5079 3.75802C88.0052 2.73752 85.0895 2.22727 81.7365 2.22727C78.3834 2.22727 75.6135 2.76182 73.1595 3.83091C70.7054 4.9 68.8102 6.43074 67.4981 8.42314C66.1861 10.4155 65.53 12.7238 65.53 15.3479C65.53 17.5347 66.016 19.4785 66.9636 21.1793C67.9112 22.8802 69.369 24.2408 71.3129 25.2856C73.2567 26.3304 75.6621 27.0593 78.5049 27.4724L85.0653 28.42C86.9848 28.6873 88.6127 29.1975 89.9248 29.9264C91.2368 30.6554 92.2087 31.603 92.8405 32.7693C93.4722 33.9355 93.7881 35.2719 93.7881 36.7784C93.7881 38.6493 93.3021 40.3258 92.3545 41.7593C91.3826 43.2172 90.0219 44.3349 88.2482 45.1367C86.4745 45.9385 84.3849 46.3516 82.0281 46.3516C79.3553 46.3516 77.0471 45.9142 75.1033 45.0395C73.1595 44.1648 71.7016 42.9499 70.6811 41.3949C69.6849 39.8398 69.1504 37.9689 69.1018 35.8307H63.8778C63.8778 38.9165 64.6067 41.565 66.0889 43.8246C67.571 46.0843 69.6363 47.8094 72.3576 49C75.0547 50.2149 78.2862 50.798 82.0281 50.798C85.5026 50.798 88.5398 50.2149 91.091 49.0243C93.6666 47.8337 95.6104 46.1572 96.971 43.9947C98.3317 41.8322 99.012 39.3053 99.012 36.3896C99.012 33.9841 98.5261 31.8946 97.5785 30.0965C96.6066 28.3228 95.1973 26.865 93.3264 25.7716L93.2778 25.8202Z" fill="#FAF7F4"/>
<path d="M113.469 45.0637C113.08 44.6507 112.91 44.019 112.91 43.1199V3.10192H108.099V44.2619C108.099 45.5983 108.294 46.6917 108.707 47.5421C109.12 48.3925 109.751 48.9999 110.626 49.3887C111.501 49.7775 112.643 49.9475 114.076 49.9475H119.689V45.6712H115.413C114.514 45.6712 113.882 45.4768 113.493 45.0637H113.469Z" fill="#FAF7F4"/>
<path d="M282.653 18.2151C281.22 18.2151 280.078 18.4095 279.203 18.774C278.328 19.1627 277.696 19.7702 277.283 20.6206C276.87 21.471 276.676 22.5644 276.676 23.9008V49.9477H281.487V25.0427C281.487 24.1437 281.681 23.512 282.046 23.0989C282.434 22.6859 283.066 22.4915 283.965 22.4915H294V18.2151H282.653Z" fill="#FAF7F4"/>
<path d="M184.029 18.8954C182.134 17.8749 179.875 17.3647 177.226 17.3647C175.258 17.3647 173.46 17.6805 171.832 18.3366C170.204 18.9926 168.843 19.9645 167.75 21.2523C167.288 21.7868 166.9 22.4186 166.584 23.0746V18.2394H162.235V49.972H167.045V31.5058C167.045 29.5863 167.458 27.8855 168.26 26.4277C169.062 24.9455 170.18 23.8278 171.613 23.026C173.047 22.2242 174.651 21.8111 176.424 21.8111C178.198 21.8111 179.802 22.1513 181.065 22.8559C182.329 23.5606 183.325 24.6053 184.054 25.9903C184.758 27.3996 185.123 29.1733 185.123 31.3115V49.9963H189.934V30.9956C189.934 28.007 189.423 25.5044 188.403 23.4877C187.382 21.471 185.925 19.9645 184.029 18.944V18.8954Z" fill="#FAF7F4"/>
<path fill-rule="evenodd" clip-rule="evenodd" d="M224.557 23.0502C224.12 22.2727 223.609 21.568 223.026 20.9363C221.909 19.7457 220.524 18.871 218.871 18.2636C217.219 17.6561 215.373 17.3646 213.307 17.3646C210.367 17.3646 207.743 18.0692 205.435 19.4299C203.127 20.8148 201.329 22.7829 200.041 25.3099C198.753 27.8611 198.097 30.7768 198.097 34.0813C198.097 37.3857 198.753 40.3014 200.041 42.8527C201.329 45.4039 203.127 47.372 205.435 48.7327C207.743 50.1176 210.343 50.798 213.307 50.798C215.397 50.798 217.292 50.4821 218.993 49.8261C220.694 49.17 222.103 48.2467 223.245 47.0075C223.974 46.2057 224.581 45.3067 225.092 44.3105V49.9233H229.441V3.10192H224.557V23.0502ZM223.391 40.5444C222.516 42.391 221.277 43.8246 219.649 44.8694C218.021 45.8899 216.126 46.4001 213.988 46.4001C211.849 46.4001 209.954 45.8899 208.326 44.8694C206.698 43.8489 205.435 42.4153 204.512 40.5444C203.588 38.6978 203.151 36.5353 203.151 34.0813C203.151 31.6272 203.613 29.4647 204.512 27.5938C205.435 25.7229 206.698 24.2894 208.326 23.2689C209.954 22.2727 211.849 21.7624 213.988 21.7624C216.126 21.7624 218.021 22.2727 219.649 23.2689C221.277 24.2651 222.516 25.7229 223.391 27.5938C224.266 29.4647 224.703 31.6272 224.703 34.0813C224.703 36.5353 224.266 38.6978 223.391 40.5444Z" fill="#FAF7F4"/>
<path fill-rule="evenodd" clip-rule="evenodd" d="M138.86 17.3645C135.92 17.3645 133.296 18.0448 131.036 19.3812C128.752 20.7176 126.978 22.6371 125.69 25.1397C124.403 27.6424 123.747 30.5824 123.747 33.984C123.747 37.3857 124.403 40.35 125.69 42.8769C126.978 45.4282 128.825 47.3963 131.182 48.7569C133.539 50.1419 136.26 50.8222 139.346 50.8222C141.654 50.8222 143.743 50.4334 145.566 49.6802C147.388 48.927 148.943 47.8093 150.207 46.3272C151.3 45.0637 152.126 43.5815 152.806 41.9293L148.239 41.1032C147.485 42.8769 146.343 44.2376 144.837 45.1852C143.33 46.1328 141.508 46.5944 139.419 46.5944C137.183 46.5944 135.264 46.1328 133.66 45.1852C132.056 44.2376 130.817 42.9012 129.943 41.1275C129.141 39.5239 128.728 37.6529 128.655 35.5391H153.584C153.681 34.9073 153.73 34.3971 153.754 33.9597C153.754 33.7432 153.761 33.5266 153.767 33.3206C153.773 33.1336 153.778 32.9553 153.778 32.7934C153.778 28.0554 152.418 24.3136 149.721 21.5194C147.024 18.7252 143.403 17.3402 138.835 17.3402L138.86 17.3645ZM148.895 31.3113V31.5543H128.655C128.728 29.732 129.141 28.0797 129.894 26.5976C130.744 24.9453 131.935 23.6576 133.466 22.7586C134.996 21.8353 136.794 21.3979 138.86 21.3979C141.945 21.3979 144.375 22.2969 146.198 24.1192C147.996 25.9172 148.919 28.2498 148.919 31.1169V31.3599L148.895 31.3113Z" fill="#FAF7F4"/>
<path fill-rule="evenodd" clip-rule="evenodd" d="M253.326 17.3645C250.386 17.3645 247.762 18.0448 245.502 19.3812C243.218 20.7176 241.445 22.6371 240.157 25.1397C238.869 27.6424 238.213 30.5824 238.213 33.984C238.213 37.3857 238.869 40.35 240.157 42.8769C241.445 45.4039 243.291 47.3963 245.648 48.7569C248.005 50.1419 250.726 50.8222 253.812 50.8222C256.12 50.8222 258.21 50.4334 260.032 49.6802C261.855 48.927 263.41 47.8093 264.673 46.3272C265.766 45.0637 266.593 43.5815 267.273 41.9293L262.705 41.1032C261.952 42.8769 260.81 44.2376 259.303 45.1852C257.797 46.1328 255.975 46.5944 253.885 46.5944C251.65 46.5944 249.73 46.1328 248.126 45.1852C246.523 44.2376 245.284 42.9012 244.409 41.1275C243.607 39.5239 243.194 37.6529 243.121 35.5391H268.05C268.148 34.9073 268.196 34.3971 268.22 33.9597C268.22 33.7442 268.227 33.5286 268.233 33.3234V33.3223L268.233 33.3206L268.234 33.3182L268.234 33.3125C268.239 33.1284 268.245 32.9529 268.245 32.7934C268.245 28.0554 266.884 24.3136 264.187 21.5194C261.49 18.7252 257.87 17.3402 253.302 17.3402L253.326 17.3645ZM263.361 31.3113V31.5543H243.121C243.194 29.732 243.607 28.0797 244.36 26.5976C245.211 24.9453 246.401 23.6576 247.932 22.7586C249.463 21.8353 251.261 21.3979 253.326 21.3979C256.412 21.3979 258.842 22.2969 260.664 24.1192C262.462 25.9172 263.385 28.2498 263.385 31.1169V31.3599L263.361 31.3113Z" fill="#FAF7F4"/>
</svg>
