<svg viewBox="0 0 24 24" xmlns="http://www.w3.org/2000/svg">
<path d="M23 3.80499V5.66341L1 16.6247V14.7653L1.79954 14.3667C2.09713 14.2184 2.34323 13.9874 2.50686 13.7027C2.6705 13.418 2.74436 13.0924 2.71916 12.7667C2.70116 12.5368 2.69216 12.3059 2.69216 12.0742C2.69199 10.396 3.16634 8.7505 4.06281 7.31948C4.95928 5.88846 6.24294 4.72766 7.77193 3.96536C9.30092 3.20307 11.0157 2.86898 12.7267 3C14.4378 3.13102 16.0784 3.72207 17.4674 4.70781L15.725 5.57604C14.5659 4.94309 13.2578 4.6172 11.9303 4.63066C10.6028 4.64411 9.30193 4.99643 8.15652 5.65274C7.01112 6.30904 6.06094 7.24654 5.40011 8.37239C4.73928 9.49823 4.39073 10.7733 4.38898 12.0714C4.38912 12.3968 4.41088 12.7218 4.45414 13.0443L23 3.80499Z" />
<path d="M5.63344 16.1696L23 7.52366V9.37662L22.1995 9.77525C21.9022 9.92373 21.6564 10.1548 21.4929 10.4395C21.3295 10.7241 21.2557 11.0497 21.2808 11.3752C21.2985 11.6064 21.3078 11.8403 21.3078 12.0742C21.3073 13.7521 20.8323 15.3972 19.9355 16.8277C19.0386 18.2582 17.7548 19.4184 16.2258 20.1802C14.6968 20.942 12.9822 21.2756 11.2714 21.1443C9.56064 21.0129 7.92031 20.4217 6.53165 19.436L8.17541 18.6169L8.26849 18.5686C9.42781 19.2042 10.737 19.5323 12.0661 19.5202C13.3951 19.5082 14.6978 19.1564 15.8449 18.4999C16.992 17.8434 17.9435 16.9049 18.6049 15.7777C19.2664 14.6505 19.6148 13.3737 19.6157 12.0742C19.6156 11.7467 19.5938 11.4196 19.5505 11.0949L1 20.337V18.4794L5.63344 16.1696Z" />
</svg>
