<svg viewBox="0 0 24 24" xmlns="http://www.w3.org/2000/svg">
<path d="M17.1098 14.0935C16.4564 13.7148 15.7195 13.6056 14.9894 13.5818C14.377 13.5613 13.4643 13.1689 13.4643 12.0464C13.4679 11.6421 13.6293 11.2552 13.9143 10.9683C14.1992 10.6815 14.585 10.5174 14.9894 10.5112C15.7195 10.4856 16.4564 10.3764 17.1098 9.99942C17.6964 9.65973 18.1833 9.17167 18.5217 8.58427C18.86 7.99685 19.0379 7.33076 19.0374 6.65288C19.0369 5.97499 18.858 5.30916 18.5188 4.72225C18.1796 4.13535 17.6919 3.64802 17.1048 3.30921C16.5176 2.97039 15.8517 2.79201 15.1738 2.79198C14.4959 2.79195 13.83 2.97027 13.2427 3.30903C12.6556 3.6478 12.1679 4.13507 11.8286 4.72195C11.4893 5.30882 11.3104 5.97463 11.3098 6.65252C11.3098 7.40139 11.5759 8.09056 11.9171 8.73026C12.202 9.26761 12.347 10.2656 11.3661 10.8302C11.0116 11.0274 10.5939 11.0779 10.2026 10.9707C9.81131 10.8636 9.47758 10.6074 9.27304 10.257C8.88922 9.6429 8.4201 9.0629 7.777 8.69274C7.18961 8.35391 6.52339 8.17565 5.84529 8.17585C5.16718 8.17606 4.50107 8.35472 3.91389 8.69389C3.3267 9.03306 2.83911 9.52079 2.50012 10.1081C2.16113 10.6954 1.98266 11.3615 1.98266 12.0396C1.98266 12.7177 2.16113 13.3839 2.50012 13.9712C2.83911 14.5585 3.3267 15.0462 3.91389 15.3853C4.50107 15.7245 5.16718 15.9032 5.84529 15.9034C6.52339 15.9036 7.18961 15.7254 7.777 15.3865C8.42523 15.0112 8.88922 14.4364 9.27304 13.8223C9.58862 13.3105 10.375 12.6759 11.3661 13.2491C11.7142 13.4576 11.9668 13.7943 12.0695 14.187C12.1721 14.5795 12.1168 14.9967 11.9154 15.349C11.5743 15.9887 11.3098 16.6779 11.3098 17.4268C11.3099 18.1052 11.4885 18.7717 11.8277 19.3592C12.1669 19.9467 12.6548 20.4347 13.2423 20.774C13.8299 21.1132 14.4963 21.2919 15.1748 21.292C15.8532 21.2921 16.5197 21.1136 17.1073 20.7745C17.6949 20.4354 18.183 19.9477 18.5224 19.3602C18.8618 18.7727 19.0405 18.1063 19.0408 17.4279C19.041 16.7494 18.8627 16.0829 18.5238 15.4952C18.1848 14.9075 17.6972 14.4194 17.1098 14.0798V14.0935Z" />
</svg>
