<svg viewBox="0 0 24 24" xmlns="http://www.w3.org/2000/svg">
<path fill-rule="evenodd" clip-rule="evenodd" d="M12 2C17.5229 2 22 6.47714 22 12C22 17.5229 17.5229 22 12 22C6.47714 22 2 17.5229 2 12C2 6.47714 6.47714 2 12 2ZM14.2849 4.95859C14.0594 4.88655 13.875 5.02039 13.875 5.25714V5.83937C13.875 5.99812 13.9947 6.17878 14.1437 6.23341C16.5372 7.11008 18.25 9.41071 18.25 12.1042C18.25 14.7976 16.5372 17.0982 14.1437 17.9749C13.9802 18.0348 13.875 18.1949 13.875 18.369V18.9512C13.875 19.1879 14.0594 19.3218 14.2849 19.2498C17.3097 18.2833 19.5 15.4496 19.5 12.1042C19.5 8.75878 17.3097 5.92502 14.2849 4.95859ZM10.125 5.25714C10.125 5.02039 9.94063 4.88655 9.71514 4.95859C6.69031 5.92502 4.5 8.75878 4.5 12.1042C4.5 15.4496 6.69031 18.2833 9.71514 19.2498C9.94063 19.3218 10.125 19.1879 10.125 18.9512V18.369C10.125 18.2102 10.0054 18.0295 9.85631 17.9749C7.46282 17.0982 5.75 14.7976 5.75 12.1042C5.75 9.41071 7.46282 7.11008 9.85631 6.23341C10.0054 6.17878 10.125 5.99812 10.125 5.83937V5.25714ZM12.3125 7.1042H11.6875C11.5149 7.1042 11.375 7.24408 11.375 7.41667V8.38482C10.136 8.56098 9.33502 9.38553 9.33502 10.4433C9.33502 11.8125 10.1627 12.3438 11.9098 12.5789C13.0951 12.7731 13.4325 13.0284 13.4325 13.7029C13.4325 14.3772 12.86 14.8268 12.0531 14.8268C10.9619 14.8268 10.6029 14.3494 10.4704 13.7314C10.4391 13.585 10.3137 13.478 10.164 13.478H9.4511C9.27153 13.478 9.13114 13.6397 9.162 13.8166C9.34353 14.8568 10.0116 15.62 11.375 15.805V16.7917C11.375 16.9643 11.5149 17.1042 11.6875 17.1042H12.3125C12.4851 17.1042 12.625 16.9643 12.625 16.7917V15.8045C13.9157 15.5995 14.7404 14.7009 14.7404 13.5904C14.7404 12.1293 13.8513 11.6388 12.1346 11.4039C10.8676 11.2199 10.6226 10.9235 10.6226 10.3309C10.6226 9.76902 11.0516 9.37035 11.8793 9.37035C12.628 9.37035 13.0585 9.63165 13.2364 10.2342C13.2761 10.3686 13.3964 10.4637 13.5366 10.4637H14.194C14.3773 10.4637 14.52 10.2952 14.4809 10.1161C14.2728 9.16392 13.6311 8.59255 12.625 8.41231V7.41667C12.625 7.24408 12.4851 7.1042 12.3125 7.1042Z" />
</svg>
