<svg width="240" height="95" viewBox="0 0 240 95" fill="none" xmlns="http://www.w3.org/2000/svg">
<path fill-rule="evenodd" clip-rule="evenodd" d="M-6.71148e-05 -5.43594e-05H0.607528V94.9999H-6.71148e-05V-5.43594e-05ZM2.4306 -5.43594e-05H4.25338V94.9999H2.4306V-5.43594e-05ZM6.68387 -5.43594e-05H5.46868V94.9999H6.68387V-5.43594e-05ZM7.29107 -5.41475e-05H9.11386V94.9999H7.29107V-5.41475e-05ZM10.9366 -5.41475e-05H10.329V94.9999H10.9366V-5.41475e-05ZM11.5439 -5.43594e-05H16.4046V94.9999H11.5439V-5.43594e-05ZM19.4425 -5.43594e-05H18.8349V94.9999H19.4425V-5.43594e-05ZM20.0506 -5.41475e-05H20.6582V94.9999H20.0506V-5.41475e-05ZM22.4809 -5.41475e-05H21.2658V94.9999H22.4809V-5.41475e-05ZM24.9111 -5.43594e-05H25.5187V94.9999H24.9111V-5.43594e-05ZM29.7726 -5.43594e-05H29.165V94.9999H29.7726V-5.43594e-05ZM30.3797 -5.41475e-05H32.2025V94.9999H30.3797V-5.41475e-05ZM33.4181 -5.43594e-05H32.8105V94.9999H33.4181V-5.43594e-05ZM34.0252 -5.41475e-05H35.848V94.9999H34.0252V-5.41475e-05ZM39.4936 -5.41475e-05H37.6708V94.9999H39.4936V-5.41475e-05ZM40.7088 -5.41475e-05H41.3164V94.9999H40.7088V-5.41475e-05ZM44.3544 -5.41475e-05H41.924V94.9999H44.3544V-5.41475e-05ZM49.2148 -5.43594e-05H49.8224V94.9999H49.2148V-5.43594e-05ZM54.0755 -5.43594e-05H52.8603V94.9999H54.0755V-5.43594e-05ZM54.6835 -5.41475e-05H55.8987V94.9999H54.6835V-5.41475e-05ZM57.7218 -5.43594e-05H57.1142V94.9999H57.7218V-5.43594e-05ZM58.329 -5.41475e-05H60.1518V94.9999H58.329V-5.41475e-05ZM61.9749 -5.43594e-05H60.7597V94.9999H61.9749V-5.43594e-05ZM63.1894 -5.43594e-05H63.797V94.9999H63.1894V-5.43594e-05ZM66.2278 -5.41475e-05H65.0126V94.9999H66.2278V-5.41475e-05ZM66.8349 -5.43594e-05H70.4805V94.9999H66.8349V-5.43594e-05ZM75.9493 -5.41475e-05H72.3037V94.9999H75.9493V-5.41475e-05ZM78.3797 -5.41475e-05H78.9873V94.9999H78.3797V-5.41475e-05ZM81.4177 -5.41475e-05H79.5949V94.9999H81.4177V-5.41475e-05ZM82.6328 -5.41475e-05H83.2404V94.9999H82.6328V-5.41475e-05ZM85.6708 -5.41475e-05H85.0632V94.9999H85.6708V-5.41475e-05ZM86.2784 -5.41475e-05H88.7088V94.9999H86.2784V-5.41475e-05ZM90.5316 -5.41475e-05H89.924V94.9999H90.5316V-5.41475e-05ZM91.1396 -5.43594e-05H92.3548V94.9999H91.1396V-5.43594e-05ZM95.3927 -5.43594e-05H94.7851V94.9999H95.3927V-5.43594e-05ZM95.9999 -5.41475e-05H97.2151V94.9999H95.9999V-5.41475e-05ZM100.86 -5.43594e-05H100.253V94.9999H100.86V-5.43594e-05ZM101.469 -5.43594e-05H103.899V94.9999H101.469V-5.43594e-05ZM109.367 -5.43594e-05H107.544V94.9999H109.367V-5.43594e-05ZM110.582 -5.43594e-05H111.19V94.9999H110.582V-5.43594e-05ZM114.228 -5.41475e-05H113.013V94.9999H114.228V-5.41475e-05ZM116.051 -5.41475e-05H118.481V94.9999H116.051V-5.41475e-05ZM119.696 -5.43594e-05H119.089V94.9999H119.696V-5.43594e-05ZM120.304 -5.41475e-05H122.734V94.9999H120.304V-5.41475e-05ZM125.772 -5.43594e-05H124.557V94.9999H125.772V-5.43594e-05ZM126.38 -5.41475e-05H128.202V94.9999H126.38V-5.41475e-05ZM130.026 -5.43594e-05H128.81V94.9999H130.026V-5.43594e-05ZM131.848 -5.43594e-05H134.278V94.9999H131.848V-5.43594e-05ZM138.532 -5.41475e-05H137.924V94.9999H138.532V-5.41475e-05ZM139.14 -5.43594e-05H139.747V94.9999H139.14V-5.43594e-05ZM142.784 -5.43594e-05H142.177V94.9999H142.784V-5.43594e-05ZM144 -5.41475e-05H145.215V94.9999H144V-5.41475e-05ZM148.861 -5.43594e-05H145.823V94.9999H148.861V-5.43594e-05ZM149.469 -5.43594e-05H150.076V94.9999H149.469V-5.43594e-05ZM154.329 -5.41475e-05H150.683V94.9999H154.329V-5.41475e-05ZM155.544 -5.43594e-05H157.367V94.9999H155.544V-5.43594e-05ZM159.19 -5.41475e-05H157.975V94.9999H159.19V-5.41475e-05ZM159.798 -5.43594e-05H160.405V94.9999H159.798V-5.43594e-05ZM164.658 -5.41475e-05H161.013V94.9999H164.658V-5.41475e-05ZM167.089 -5.41475e-05H168.911V94.9999H167.089V-5.41475e-05ZM170.734 -5.43594e-05H169.518V94.9999H170.734V-5.43594e-05ZM172.557 -5.43594e-05H174.379V94.9999H172.557V-5.43594e-05ZM176.202 -5.41475e-05H174.987V94.9999H176.202V-5.41475e-05ZM178.633 -5.41475e-05H179.24V94.9999H178.633V-5.41475e-05ZM182.278 -5.43594e-05H179.848V94.9999H182.278V-5.43594e-05ZM184.709 -5.41475e-05H185.924V94.9999H184.709V-5.41475e-05ZM187.746 -5.43594e-05H186.531V94.9999H187.746V-5.43594e-05ZM188.962 -5.41475e-05H189.57V94.9999H188.962V-5.41475e-05ZM192.607 -5.41475e-05H191.392V94.9999H192.607V-5.41475e-05ZM197.469 -5.43594e-05H198.076V94.9999H197.469V-5.43594e-05ZM199.899 -5.41475e-05H198.683V94.9999H199.899V-5.41475e-05ZM201.721 -5.41475e-05H202.329V94.9999H201.721V-5.41475e-05ZM205.975 -5.41475e-05H202.937V94.9999H205.975V-5.41475e-05ZM207.798 -5.43594e-05H208.405V94.9999H207.798V-5.43594e-05ZM209.62 -5.41475e-05H209.013V94.9999H209.62V-5.41475e-05ZM210.227 -5.43594e-05H210.835V94.9999H210.227V-5.43594e-05ZM214.481 -5.43594e-05H213.873V94.9999H214.481V-5.43594e-05ZM216.304 -5.41475e-05H218.127V94.9999H216.304V-5.41475e-05ZM219.949 -5.41475e-05H219.342V94.9999H219.949V-5.41475e-05ZM220.557 -5.43594e-05H225.417V94.9999H220.557V-5.43594e-05ZM228.456 -5.41475e-05H226.633V94.9999H228.456V-5.41475e-05ZM230.278 -5.41475e-05H233.316V94.9999H230.278V-5.41475e-05ZM235.139 -5.43594e-05H234.531V94.9999H235.139V-5.43594e-05ZM235.747 -5.41475e-05H236.962V94.9999H235.747V-5.41475e-05ZM238.784 -5.43594e-05H237.569V94.9999H238.784V-5.43594e-05ZM239.392 -5.41475e-05H240V94.9999H239.392V-5.41475e-05Z" fill="#FAF8F7"/>
</svg>
