<svg width="152" height="14" viewBox="0 0 152 14" fill="none" xmlns="http://www.w3.org/2000/svg">
<path d="M0.732 13V1.08H2.252L8.94 10.312L8.22 10.424V1.08H10.092V13H8.572L1.932 3.704L2.62 3.576V13H0.732ZM18.9921 13.192C18.1281 13.192 17.3228 13.0373 16.5761 12.728C15.8401 12.4187 15.1895 11.9867 14.6241 11.432C14.0695 10.8773 13.6321 10.2267 13.3121 9.48C13.0028 8.73333 12.8481 7.91733 12.8481 7.032C12.8481 6.14667 13.0028 5.33067 13.3121 4.584C13.6321 3.82667 14.0695 3.176 14.6241 2.632C15.1788 2.07733 15.8295 1.65067 16.5761 1.352C17.3228 1.04267 18.1281 0.888 18.9921 0.888C19.8668 0.888 20.6721 1.04267 21.4081 1.352C22.1548 1.65067 22.8055 2.07733 23.3601 2.632C23.9255 3.18667 24.3628 3.83733 24.6721 4.584C24.9815 5.33067 25.1361 6.14667 25.1361 7.032C25.1361 7.91733 24.9761 8.73333 24.6561 9.48C24.3468 10.2267 23.9148 10.8773 23.3601 11.432C22.8055 11.9867 22.1548 12.4187 21.4081 12.728C20.6615 13.0373 19.8561 13.192 18.9921 13.192ZM18.9921 11.464C19.6108 11.464 20.1761 11.352 20.6881 11.128C21.2108 10.904 21.6641 10.5947 22.0481 10.2C22.4321 9.79467 22.7308 9.32533 22.9441 8.792C23.1575 8.248 23.2641 7.66133 23.2641 7.032C23.2641 6.40267 23.1575 5.82133 22.9441 5.288C22.7308 4.75467 22.4321 4.28533 22.0481 3.88C21.6641 3.47467 21.2108 3.16 20.6881 2.936C20.1761 2.712 19.6108 2.6 18.9921 2.6C18.3735 2.6 17.8028 2.712 17.2801 2.936C16.7681 3.16 16.3201 3.47467 15.9361 3.88C15.5521 4.28533 15.2535 4.75467 15.0401 5.288C14.8375 5.82133 14.7361 6.40267 14.7361 7.032C14.7361 7.66133 14.8375 8.248 15.0401 8.792C15.2535 9.32533 15.5521 9.79467 15.9361 10.2C16.3201 10.5947 16.7735 10.904 17.2961 11.128C17.8188 11.352 18.3841 11.464 18.9921 11.464ZM30.2679 13L34.4599 1.08H36.7959L40.9879 13H38.9719L38.0599 10.328H33.2119L32.2839 13H30.2679ZM33.7559 8.648H37.4839L35.3719 2.408H35.8999L33.7559 8.648ZM43.042 13V1.08H46.946C48.1833 1.08 49.2553 1.33067 50.162 1.832C51.0793 2.32267 51.7887 3.016 52.29 3.912C52.7913 4.808 53.042 5.848 53.042 7.032C53.042 8.20533 52.7913 9.24533 52.29 10.152C51.7887 11.048 51.0793 11.7467 50.162 12.248C49.2553 12.7493 48.1833 13 46.946 13H43.042ZM44.93 11.32H46.978C47.8207 11.32 48.5513 11.144 49.17 10.792C49.7993 10.44 50.2847 9.944 50.626 9.304C50.9673 8.664 51.138 7.90667 51.138 7.032C51.138 6.15733 50.962 5.40533 50.61 4.776C50.2687 4.136 49.7887 3.64 49.17 3.288C48.5513 2.936 47.8207 2.76 46.978 2.76H44.93V11.32ZM55.5414 13V1.08H59.4454C60.6827 1.08 61.7547 1.33067 62.6614 1.832C63.5787 2.32267 64.288 3.016 64.7894 3.912C65.2907 4.808 65.5414 5.848 65.5414 7.032C65.5414 8.20533 65.2907 9.24533 64.7894 10.152C64.288 11.048 63.5787 11.7467 62.6614 12.248C61.7547 12.7493 60.6827 13 59.4454 13H55.5414ZM57.4294 11.32H59.4774C60.32 11.32 61.0507 11.144 61.6694 10.792C62.2987 10.44 62.784 9.944 63.1254 9.304C63.4667 8.664 63.6374 7.90667 63.6374 7.032C63.6374 6.15733 63.4614 5.40533 63.1094 4.776C62.768 4.136 62.288 3.64 61.6694 3.288C61.0507 2.936 60.32 2.76 59.4774 2.76H57.4294V11.32ZM68.0407 13V1.08H75.8967V2.76H69.9287V6.184H75.5767V7.864H69.9287V11.32H75.8967V13H68.0407ZM78.2901 13V1.08H82.1941C83.4315 1.08 84.5035 1.33067 85.4101 1.832C86.3275 2.32267 87.0368 3.016 87.5381 3.912C88.0395 4.808 88.2901 5.848 88.2901 7.032C88.2901 8.20533 88.0395 9.24533 87.5381 10.152C87.0368 11.048 86.3275 11.7467 85.4101 12.248C84.5035 12.7493 83.4315 13 82.1941 13H78.2901ZM80.1781 11.32H82.2261C83.0688 11.32 83.7995 11.144 84.4181 10.792C85.0475 10.44 85.5328 9.944 85.8741 9.304C86.2155 8.664 86.3861 7.90667 86.3861 7.032C86.3861 6.15733 86.2101 5.40533 85.8581 4.776C85.5168 4.136 85.0368 3.64 84.4181 3.288C83.7995 2.936 83.0688 2.76 82.2261 2.76H80.1781V11.32ZM98.4024 13.192C97.6557 13.192 96.9624 13.0533 96.3224 12.776C95.6824 12.488 95.1384 12.0987 94.6904 11.608C94.2424 11.1173 93.9117 10.552 93.6984 9.912L95.2984 9.24C95.5864 9.976 96.0077 10.5413 96.5624 10.936C97.117 11.3307 97.757 11.528 98.4824 11.528C98.909 11.528 99.2824 11.464 99.6024 11.336C99.9224 11.1973 100.168 11.0053 100.338 10.76C100.52 10.5147 100.61 10.232 100.61 9.912C100.61 9.47467 100.488 9.128 100.242 8.872C99.997 8.616 99.6344 8.41333 99.1544 8.264L96.9144 7.56C96.0184 7.28267 95.3357 6.86133 94.8664 6.296C94.397 5.72 94.1624 5.048 94.1624 4.28C94.1624 3.608 94.3277 3.02133 94.6584 2.52C94.989 2.008 95.4424 1.608 96.0184 1.32C96.605 1.032 97.2717 0.888 98.0184 0.888C98.733 0.888 99.3837 1.016 99.9704 1.272C100.557 1.51733 101.058 1.85867 101.474 2.296C101.901 2.73333 102.21 3.24 102.402 3.816L100.834 4.504C100.6 3.87467 100.232 3.38933 99.7304 3.048C99.2397 2.70667 98.669 2.536 98.0184 2.536C97.6237 2.536 97.277 2.60533 96.9784 2.744C96.6797 2.872 96.445 3.064 96.2744 3.32C96.1144 3.56533 96.0344 3.85333 96.0344 4.184C96.0344 4.568 96.157 4.90933 96.4024 5.208C96.6477 5.50667 97.021 5.73067 97.5224 5.88L99.6024 6.536C100.552 6.824 101.266 7.24 101.746 7.784C102.226 8.31733 102.466 8.984 102.466 9.784C102.466 10.4453 102.29 11.032 101.938 11.544C101.597 12.056 101.122 12.4613 100.514 12.76C99.9064 13.048 99.2024 13.192 98.4024 13.192ZM109.69 13.192C108.804 13.192 108.015 13.0053 107.322 12.632C106.639 12.2587 106.1 11.7467 105.706 11.096C105.322 10.4453 105.13 9.704 105.13 8.872V1.08H107.018V8.792C107.018 9.31467 107.13 9.77867 107.354 10.184C107.588 10.5893 107.903 10.904 108.298 11.128C108.703 11.352 109.167 11.464 109.69 11.464C110.223 11.464 110.687 11.352 111.082 11.128C111.487 10.904 111.802 10.5893 112.026 10.184C112.26 9.77867 112.378 9.31467 112.378 8.792V1.08H114.25V8.872C114.25 9.704 114.058 10.4453 113.674 11.096C113.29 11.7467 112.751 12.2587 112.058 12.632C111.375 13.0053 110.586 13.192 109.69 13.192ZM122.84 13.192C121.998 13.192 121.214 13.0373 120.488 12.728C119.774 12.4187 119.144 11.992 118.6 11.448C118.067 10.8933 117.651 10.2427 117.352 9.496C117.054 8.74933 116.904 7.928 116.904 7.032C116.904 6.14667 117.048 5.33067 117.336 4.584C117.635 3.82667 118.051 3.176 118.584 2.632C119.118 2.07733 119.742 1.65067 120.456 1.352C121.171 1.04267 121.955 0.888 122.808 0.888C123.651 0.888 124.403 1.032 125.064 1.32C125.736 1.608 126.302 1.98667 126.76 2.456C127.219 2.91467 127.55 3.416 127.752 3.96L126.072 4.776C125.827 4.12533 125.422 3.60267 124.856 3.208C124.291 2.80267 123.608 2.6 122.808 2.6C122.019 2.6 121.32 2.78667 120.712 3.16C120.104 3.53333 119.63 4.05067 119.288 4.712C118.958 5.37333 118.792 6.14667 118.792 7.032C118.792 7.91733 118.963 8.696 119.304 9.368C119.656 10.0293 120.136 10.5467 120.744 10.92C121.352 11.2827 122.051 11.464 122.84 11.464C123.502 11.464 124.104 11.3307 124.648 11.064C125.203 10.7867 125.646 10.4027 125.976 9.912C126.307 9.41067 126.472 8.82933 126.472 8.168V7.352L127.32 8.12H122.808V6.52H128.344V7.64C128.344 8.51467 128.195 9.29867 127.896 9.992C127.598 10.6747 127.192 11.256 126.68 11.736C126.168 12.216 125.582 12.5787 124.92 12.824C124.259 13.0693 123.566 13.192 122.84 13.192ZM129.778 13L133.97 1.08H136.306L140.498 13H138.482L137.57 10.328H132.722L131.794 13H129.778ZM133.266 8.648H136.994L134.882 2.408H135.41L133.266 8.648ZM142.552 13V1.08H146.888C147.688 1.08 148.392 1.22933 149 1.528C149.608 1.816 150.083 2.24267 150.424 2.808C150.776 3.36267 150.952 4.02933 150.952 4.808C150.952 5.62933 150.744 6.33333 150.328 6.92C149.923 7.50667 149.373 7.93333 148.68 8.2L151.432 13H149.288L146.36 7.8L147.592 8.52H144.44V13H142.552ZM144.44 6.84H146.92C147.357 6.84 147.736 6.75467 148.056 6.584C148.376 6.41333 148.621 6.17867 148.792 5.88C148.973 5.57067 149.064 5.208 149.064 4.792C149.064 4.376 148.973 4.01867 148.792 3.72C148.621 3.41067 148.376 3.176 148.056 3.016C147.736 2.84533 147.357 2.76 146.92 2.76H144.44V6.84Z" fill="#FAF8F7"/>
</svg>
