<svg viewBox="0 0 129 32" fill="none" xmlns="http://www.w3.org/2000/svg">
<path d="M5.93815 17.7092C5.86377 17.142 5.82658 16.5706 5.82627 15.9986C5.82939 13.7163 6.42852 11.4743 7.56458 9.49481C8.70065 7.5153 10.3343 5.86694 12.3032 4.71301C14.2725 3.55907 16.509 2.93959 18.7911 2.91594C21.0733 2.89229 23.3223 3.46528 25.3147 4.57816L28.3103 3.05159C25.9225 1.31842 23.1019 0.279227 20.1603 0.0488549C17.2188 -0.181517 14.2706 0.405901 11.6422 1.7462C9.01349 3.08649 6.80669 5.12747 5.26558 7.64355C3.72447 10.1596 2.90876 13.0528 2.90907 16.0034C2.90907 16.4109 2.9247 16.8168 2.95564 17.2212C2.99877 17.7937 2.87188 18.3663 2.5906 18.8668C2.30932 19.3674 1.88615 19.7736 1.37453 20.0343L0 20.7351V24.0043L37.8217 4.73178V1.46422L5.93815 17.7092Z" fill="#FAF8F7"/>
<path d="M37.8217 8.00254L7.96556 23.2042L0 27.2655V30.5314L31.8916 14.2816C31.966 14.8525 32.0032 15.4277 32.0035 16.0034C32.002 18.2884 31.4031 20.5333 30.2658 22.5152C29.1288 24.4971 27.493 26.1471 25.5209 27.3014C23.5488 28.4557 21.3092 29.0742 19.0243 29.0954C16.7397 29.1166 14.4888 28.5398 12.4958 27.4223L12.3357 27.5071L9.5098 28.9472C11.8972 30.6805 14.7172 31.72 17.6582 31.9509C20.5995 32.1818 23.5473 31.5952 26.1757 30.2558C28.8044 28.9164 31.0115 26.8764 32.5533 24.3612C34.0953 21.8461 34.9117 18.9536 34.9126 16.0034C34.9126 15.5922 34.8967 15.1809 34.8663 14.7745C34.8229 14.2021 34.9498 13.6298 35.2308 13.1293C35.5117 12.6288 35.9346 12.2224 36.4456 11.9614L37.8217 11.2605V8.00254Z" fill="#FAF8F7"/>
<path fill-rule="evenodd" clip-rule="evenodd" d="M74.682 18.9397C74.682 13.632 78.2246 10.2716 82.7916 10.2716C87.9169 10.2716 90.9316 14.5281 90.589 19.8406H77.727C77.8198 23.4442 80.4298 25.1836 82.8844 25.1836C85.371 25.1836 86.7377 24.0651 87.4512 22.4185H90.3715C89.6258 25.278 86.9552 27.6703 82.8844 27.6703C77.6023 27.6703 74.682 23.8795 74.682 18.9397ZM82.7916 12.6943C80.3048 12.6943 78.007 14.056 77.7573 17.4164H87.6065C87.5137 15.0561 85.8048 12.6943 82.7916 12.6943Z" fill="#FAF8F7"/>
<path d="M57.4879 14.3408L54.886 13.7504C52.7658 13.2831 51.2056 12.291 51.2056 10.302C51.2056 7.78492 54.246 7.00883 55.9902 7.00883C58.2305 7.00883 60.837 7.90973 61.5827 10.4876H64.6599C63.7573 6.16714 60.1794 4.33653 56.1149 4.33653C52.4795 4.33653 47.975 6.17033 47.975 10.4876C47.975 14.216 51.0503 15.957 54.1578 16.6403L56.9663 17.2308C59.7938 17.8836 61.8131 18.8149 61.8131 21.2072C61.8131 23.4474 59.9185 24.998 56.5631 24.998C53.0521 24.998 50.94 23.3818 50.3496 20.2759H47.2355C47.8262 24.7564 51.1816 27.6703 56.4943 27.6703C60.9748 27.6703 65.0697 25.3084 65.0697 20.9272C65.0697 16.3923 60.938 15.0865 57.4879 14.3408Z" fill="#FAF8F7"/>
<path d="M68.3131 6.35596H71.1406V10.55H74.3091V12.8191H71.1406V22.7306C71.1406 24.4699 71.2638 24.9052 72.8799 24.9052H74.3091V27.2655H72.2592C69.0589 27.2655 68.3131 26.5518 68.3131 23.0714V12.8191H65.6713V10.55H68.3131V6.35596Z" fill="#FAF8F7"/>
<path d="M127.164 10.4572C124.958 10.55 123.281 11.5773 122.442 13.4703V10.55H119.676V27.2655H122.503V18.5045C122.503 14.7761 123.809 13.3839 126.419 13.3839C126.949 13.3841 127.479 13.4258 128.003 13.5087V10.4876C127.724 10.4634 127.444 10.4532 127.164 10.4572Z" fill="#FAF8F7"/>
<path fill-rule="evenodd" clip-rule="evenodd" d="M116.986 17.1107L116.955 20.964C116.923 23.7867 117.048 25.6813 117.389 27.2703H114.531C114.41 26.5096 114.338 25.7422 114.314 24.9724C113.289 26.715 111.58 27.6751 108.598 27.6751C105.46 27.6751 102.85 25.9341 102.85 22.8586C102.85 18.9061 107.324 17.7332 114.158 16.9859V16.5827C114.158 13.5071 112.481 12.5134 110.367 12.5134C108.007 12.5134 106.671 13.7568 106.546 15.837H103.626C103.874 12.2334 107.106 10.214 110.337 10.214C115.029 10.214 117.018 12.3566 116.986 17.1107ZM109.218 25.4381C111.86 25.4381 114.376 24.2251 114.376 20.2807V19.223C109.249 19.7206 105.988 20.4967 105.988 22.7962C105.988 24.3819 107.199 25.4381 109.218 25.4381Z" fill="#FAF8F7"/>
<path d="M95.3193 4.72858H92.4918V27.2655H95.3193V4.72858Z" fill="#FAF8F7"/>
<path d="M98.1452 4.72858H100.973V27.2655H98.1452V4.72858Z" fill="#FAF8F7"/>
</svg>
