<svg width="64" height="64" viewBox="0 0 64 64" fill="none" xmlns="http://www.w3.org/2000/svg">
<path d="M0 32C0 14.3269 14.3269 0 32 0V0C49.6731 0 64 14.3269 64 32V32C64 49.6731 49.6731 64 32 64V64C14.3269 64 0 49.6731 0 32V32Z" fill="#CCBBB8" fill-opacity="0.16"/>
<g clip-path="url(#clip0_1246_20272)">
<mask id="mask0_1246_20272" style="mask-type:luminance" maskUnits="userSpaceOnUse" x="16" y="16" width="32" height="32">
<path opacity="0.4" fill-rule="evenodd" clip-rule="evenodd" d="M45.3337 21.3333H18.667V42.6666L32.0003 29.3333L45.3337 42.6666V21.3333Z" fill="white"/>
<path opacity="0.6" d="M32.0003 29.3333L45.3337 42.6666H18.667L32.0003 29.3333Z" fill="white"/>
<path d="M31.9997 34.6667L18.6663 21.3334L45.333 21.3334L31.9997 34.6667Z" fill="white"/>
</mask>
<g mask="url(#mask0_1246_20272)">
<rect x="16" y="16" width="32" height="32" fill="#FAF8F7"/>
</g>
</g>
<defs>
<clipPath id="clip0_1246_20272">
<rect width="32" height="32" fill="white" transform="translate(16 16)"/>
</clipPath>
</defs>
</svg>
