<svg width="15" height="20" viewBox="0 0 15 20" fill="none" xmlns="http://www.w3.org/2000/svg">
<path fill-rule="evenodd" clip-rule="evenodd" d="M15 3.2859V4.62303C14.8345 4.7093 14.6693 4.79617 14.5034 4.88161C14.2562 5.00903 14.0671 5.19419 13.9528 5.45746C13.8876 5.60746 13.8443 5.76214 13.8439 5.92692C13.8436 6.04138 13.8468 6.15602 13.8541 6.27019C13.8757 6.61119 13.8576 6.95094 13.8225 7.28969C13.7901 7.60162 13.7331 7.90956 13.6559 8.21331C13.5503 8.62906 13.407 9.0305 13.2247 9.41694C12.9959 9.90225 12.7137 10.3521 12.3773 10.7658C12.2011 10.9825 12.0129 11.1876 11.8091 11.3769C11.7654 11.4175 11.7516 11.4554 11.7593 11.5141C11.7832 11.6959 11.8026 11.8783 11.8223 12.0607C11.8409 12.2354 11.8576 12.4102 11.8756 12.585C11.8952 12.7755 11.9155 12.9659 11.9352 13.1562C11.9532 13.331 11.9707 13.5058 11.9887 13.6805C12.0051 13.8406 12.0224 14.0006 12.0386 14.1607C12.0557 14.3289 12.0713 14.4972 12.0887 14.6655C12.1091 14.8624 12.1311 15.0591 12.1514 15.256C12.1718 15.4531 12.1906 15.6503 12.2108 15.8474C12.2312 16.0458 12.2532 16.2441 12.2732 16.4426C12.2934 16.6414 12.3111 16.8404 12.3318 17.0391C12.3549 17.2632 12.381 17.4869 12.4043 17.711C12.4381 18.0379 12.4701 18.3651 12.5033 18.6921C12.533 18.9839 12.5629 19.2756 12.5934 19.5673C12.6084 19.7117 12.6251 19.8557 12.6411 20H12.6129C12.6029 19.9938 12.5936 19.9854 12.5828 19.9818C12.4996 19.9543 12.4146 19.9318 12.3328 19.9002C12.1356 19.8244 11.9399 19.7446 11.7436 19.6662C11.2884 19.4844 10.8332 19.3024 10.378 19.1208C9.94594 18.9485 9.51375 18.7766 9.08162 18.6045C8.66412 18.4382 8.24644 18.2726 7.82938 18.1052C7.79 18.0894 7.75638 18.0898 7.71744 18.1069C7.63719 18.1424 7.55488 18.1728 7.47344 18.2052C7.07769 18.3626 6.68194 18.5197 6.28638 18.6774C5.80194 18.8705 5.31779 19.0644 4.83333 19.2576C4.30549 19.4681 3.77748 19.6781 3.24951 19.8881C3.19865 19.9084 3.14748 19.9277 3.09626 19.947C3.04825 19.965 2.99997 19.9823 2.95183 20H2.92359C2.93958 19.8557 2.95628 19.7116 2.97138 19.5672C3.00207 19.274 3.03177 18.9805 3.0621 18.6871C3.10085 18.3121 3.13986 17.937 3.17874 17.5619C3.21579 17.2044 3.25311 16.8469 3.28981 16.4894C3.32535 16.1431 3.35996 15.7968 3.39554 15.4505C3.43821 15.0353 3.48185 14.6202 3.52447 14.205C3.56033 13.8556 3.59488 13.506 3.63087 13.1565C3.66369 12.8375 3.69781 12.5186 3.73094 12.1996C3.74189 12.0938 3.75209 11.9879 3.76144 11.8819C3.76349 11.8584 3.76973 11.8489 3.79467 11.8403C3.84281 11.8237 3.88784 11.7971 3.93344 11.7731C4.26407 11.599 4.59431 11.4242 4.92561 11.2516C4.9408 11.2437 4.96823 11.2479 4.98444 11.2569C5.28511 11.4254 5.59779 11.5641 5.92406 11.6711C6.24748 11.7771 6.578 11.8487 6.91456 11.8889C7.23406 11.9271 7.55519 11.9336 7.87556 11.9084C8.47437 11.8612 9.04994 11.7154 9.60019 11.4649C10.0442 11.2627 10.4539 11.0034 10.8264 10.6837C11.3714 10.2159 11.807 9.65637 12.1316 9.0055C12.3655 8.53638 12.5292 8.04219 12.6206 7.52375C12.6896 7.13275 12.7227 6.73781 12.6988 6.33987C12.6897 6.18876 12.6754 6.03803 12.6632 5.88716C12.6626 5.87949 12.6594 5.87206 12.6565 5.86057C8.43863 8.07325 4.22315 10.2847 0.00102539 12.4997V12.4493C0.00102539 12.0359 0.00151529 11.6224 0.000178087 11.2091C0.000178087 11.173 0.0117585 11.1559 0.0423546 11.1399C2.34401 9.93369 4.64521 8.7265 6.9465 7.51956L9.56331 6.14781C9.99944 5.91911 10.4355 5.69028 10.8714 5.46123C11.6724 5.04034 12.4717 4.61573 13.2724 4.19416C13.8328 3.89908 14.3944 3.60633 14.9554 3.31239C14.9707 3.30441 14.9852 3.29476 15 3.2859ZM10.6714 12.2488C8.77388 13.2993 6.84137 13.3912 4.85988 12.5296C4.66566 14.4182 4.47148 16.3061 4.27677 18.1996C4.29677 18.192 4.30991 18.1873 4.32286 18.1821C4.74881 18.0128 5.17483 17.8437 5.60073 17.6742C6.30794 17.3927 7.01525 17.1114 7.72187 16.8282C7.76506 16.8109 7.80006 16.8137 7.8415 16.8303C8.36994 17.0426 8.89894 17.2538 9.42794 17.4648C9.95575 17.6753 10.4839 17.8854 11.0118 18.0956C11.1018 18.1314 11.1918 18.1668 11.2862 18.2042C11.0807 16.2136 10.8759 14.2299 10.6714 12.2488ZM7.88125 0.0129528C9.10156 0.09477 10.2115 0.498714 11.2086 1.22993C11.216 1.23534 11.2231 1.24113 11.2343 1.24994C11.2177 1.25959 11.2048 1.26776 11.1914 1.27479C10.8237 1.46781 10.4558 1.66036 10.0885 1.85421C10.0592 1.86973 10.0369 1.87166 10.0068 1.85462C9.51794 1.57791 8.99875 1.38769 8.45056 1.28397C8.01769 1.20201 7.58125 1.17663 7.14156 1.20894C6.52244 1.25449 5.92989 1.40742 5.36447 1.67024C4.77165 1.94576 4.24613 2.32229 3.79089 2.80121C3.19754 3.42541 2.77631 4.15597 2.52647 4.99123C2.42898 5.31703 2.36681 5.65022 2.33007 5.98887C2.29056 6.35288 2.29212 6.71706 2.32294 7.08144C2.32779 7.13894 2.3363 7.196 2.34369 7.25775C2.36156 7.24919 2.37696 7.24231 2.39193 7.23444C3.53993 6.63256 4.68837 6.03158 5.83566 5.42832C7.16688 4.72833 8.49656 4.02535 9.82781 3.3255C11.5442 2.42316 13.2616 1.52267 14.9786 0.62144C14.9856 0.617813 14.9929 0.614921 15 0.611661V1.94879C13.9594 2.49461 12.9189 3.04029 11.8784 3.58619C10.7436 4.18155 9.60844 4.77649 8.47406 5.37277C5.66638 6.84869 2.85898 8.32525 0.0514399 9.8015C0.0365649 9.80931 0.0212001 9.81612 0.00102539 9.82588V9.77325C0.00102539 9.3615 0.00164889 8.94969 0 8.53788C0 8.49944 0.0122039 8.48181 0.0444923 8.46519C0.219251 8.37506 0.396904 8.28975 0.565605 8.18869C0.959569 7.9525 1.15887 7.59481 1.15709 7.12381C1.15632 6.92056 1.13767 6.71725 1.13976 6.51406C1.15281 5.25504 1.47993 4.08954 2.13923 3.02826C2.83105 1.91463 3.76857 1.09283 4.94031 0.555739C5.4412 0.326127 5.96383 0.16993 6.50494 0.0815469C6.961 0.00702996 7.42019 -0.0179468 7.88125 0.0129528Z" fill="#F2EDEB" fill-opacity="0.48"/>
</svg>
