<svg width="154" height="125" viewBox="0 0 154 125" fill="none" xmlns="http://www.w3.org/2000/svg">
<path fill-rule="evenodd" clip-rule="evenodd" d="M43.0589 81.9411C61.804 100.686 92.196 100.686 110.941 81.9411C129.686 63.196 129.686 32.804 110.941 14.0589C92.196 -4.68629 61.804 -4.68629 43.0589 14.0589C24.3137 32.804 24.3137 63.196 43.0589 81.9411ZM43.766 81.234C62.0026 99.4707 91.4972 99.5879 109.879 81.5857L98.9013 70.6084L92 74.0591L77 66.5591L62 74.0591L46.5 66.3091V48.191L61.5 40.691V33.2071L43.4143 15.1214C25.4121 33.5028 25.5293 62.9974 43.766 81.234ZM77.5 65.691L91.5 72.691V63.2071L77.7039 49.411L77.5 49.3091V65.691ZM80.5324 50.8253L91.5 61.7929V56.3091L80.5324 50.8253ZM92.5 64.2071V72.691L98.156 69.8631L92.5 64.2071ZM99.0988 69.3917L92.5 62.7929V56.3091L106.5 49.3091V65.691L99.0988 69.3917ZM99.8441 70.137L110.586 80.8786C128.588 62.4972 128.471 33.0026 110.234 14.766C91.9974 -3.47066 62.5028 -3.5879 44.1214 14.4143L61.5 31.7929V23.191L77 15.441L92.5 23.191V40.691L107.5 48.191V66.3091L99.8441 70.137ZM92 41.5591L78.1774 48.4703L78.2963 48.5892L92 55.441L105.882 48.5001L92 41.5591ZM91.5 40.691V24.309L77.5 31.309V47.691L91.5 40.691ZM75.4678 47.1749L62.5 40.691V34.2071L75.4678 47.1749ZM48.118 48.5001L62 41.5591L75.882 48.5001L62 55.441L48.118 48.5001ZM76.5 46.7929L62.5 32.7929V24.309L76.5 31.309V46.7929ZM90.882 23.5L77 30.441L63.118 23.5L77 16.559L90.882 23.5ZM47.5 49.3091L61.5 56.3091V72.691L47.5 65.691V49.3091ZM62.5 72.691L76.5 65.691V49.3091L62.5 56.3091V72.691Z" fill="#FAF8F7"/>
<path d="M1.732 124V112.08H3.252L9.94 121.312L9.22 121.424V112.08H11.092V124H9.572L2.932 114.704L3.62 114.576V124H1.732ZM19.9921 124.192C19.1281 124.192 18.3228 124.037 17.5761 123.728C16.8401 123.419 16.1895 122.987 15.6241 122.432C15.0695 121.877 14.6321 121.227 14.3121 120.48C14.0028 119.733 13.8481 118.917 13.8481 118.032C13.8481 117.147 14.0028 116.331 14.3121 115.584C14.6321 114.827 15.0695 114.176 15.6241 113.632C16.1788 113.077 16.8295 112.651 17.5761 112.352C18.3228 112.043 19.1281 111.888 19.9921 111.888C20.8668 111.888 21.6721 112.043 22.4081 112.352C23.1548 112.651 23.8055 113.077 24.3601 113.632C24.9255 114.187 25.3628 114.837 25.6721 115.584C25.9815 116.331 26.1361 117.147 26.1361 118.032C26.1361 118.917 25.9761 119.733 25.6561 120.48C25.3468 121.227 24.9148 121.877 24.3601 122.432C23.8055 122.987 23.1548 123.419 22.4081 123.728C21.6615 124.037 20.8561 124.192 19.9921 124.192ZM19.9921 122.464C20.6108 122.464 21.1761 122.352 21.6881 122.128C22.2108 121.904 22.6641 121.595 23.0481 121.2C23.4321 120.795 23.7308 120.325 23.9441 119.792C24.1575 119.248 24.2641 118.661 24.2641 118.032C24.2641 117.403 24.1575 116.821 23.9441 116.288C23.7308 115.755 23.4321 115.285 23.0481 114.88C22.6641 114.475 22.2108 114.16 21.6881 113.936C21.1761 113.712 20.6108 113.6 19.9921 113.6C19.3735 113.6 18.8028 113.712 18.2801 113.936C17.7681 114.16 17.3201 114.475 16.9361 114.88C16.5521 115.285 16.2535 115.755 16.0401 116.288C15.8375 116.821 15.7361 117.403 15.7361 118.032C15.7361 118.661 15.8375 119.248 16.0401 119.792C16.2535 120.325 16.5521 120.795 16.9361 121.2C17.3201 121.595 17.7735 121.904 18.2961 122.128C18.8188 122.352 19.3841 122.464 19.9921 122.464ZM31.2679 124L35.4599 112.08H37.7959L41.9879 124H39.9719L39.0599 121.328H34.2119L33.2839 124H31.2679ZM34.7559 119.648H38.4839L36.3719 113.408H36.8999L34.7559 119.648ZM44.042 124V112.08H47.946C49.1833 112.08 50.2553 112.331 51.162 112.832C52.0793 113.323 52.7887 114.016 53.29 114.912C53.7913 115.808 54.042 116.848 54.042 118.032C54.042 119.205 53.7913 120.245 53.29 121.152C52.7887 122.048 52.0793 122.747 51.162 123.248C50.2553 123.749 49.1833 124 47.946 124H44.042ZM45.93 122.32H47.978C48.8207 122.32 49.5513 122.144 50.17 121.792C50.7993 121.44 51.2847 120.944 51.626 120.304C51.9673 119.664 52.138 118.907 52.138 118.032C52.138 117.157 51.962 116.405 51.61 115.776C51.2687 115.136 50.7887 114.64 50.17 114.288C49.5513 113.936 48.8207 113.76 47.978 113.76H45.93V122.32ZM56.5414 124V112.08H60.4454C61.6827 112.08 62.7547 112.331 63.6614 112.832C64.5787 113.323 65.288 114.016 65.7894 114.912C66.2907 115.808 66.5414 116.848 66.5414 118.032C66.5414 119.205 66.2907 120.245 65.7894 121.152C65.288 122.048 64.5787 122.747 63.6614 123.248C62.7547 123.749 61.6827 124 60.4454 124H56.5414ZM58.4294 122.32H60.4774C61.32 122.32 62.0507 122.144 62.6694 121.792C63.2987 121.44 63.784 120.944 64.1254 120.304C64.4667 119.664 64.6374 118.907 64.6374 118.032C64.6374 117.157 64.4614 116.405 64.1094 115.776C63.768 115.136 63.288 114.64 62.6694 114.288C62.0507 113.936 61.32 113.76 60.4774 113.76H58.4294V122.32ZM69.0407 124V112.08H76.8967V113.76H70.9287V117.184H76.5767V118.864H70.9287V122.32H76.8967V124H69.0407ZM79.2901 124V112.08H83.1941C84.4315 112.08 85.5035 112.331 86.4101 112.832C87.3275 113.323 88.0368 114.016 88.5381 114.912C89.0395 115.808 89.2901 116.848 89.2901 118.032C89.2901 119.205 89.0395 120.245 88.5381 121.152C88.0368 122.048 87.3275 122.747 86.4101 123.248C85.5035 123.749 84.4315 124 83.1941 124H79.2901ZM81.1781 122.32H83.2261C84.0688 122.32 84.7995 122.144 85.4181 121.792C86.0475 121.44 86.5328 120.944 86.8741 120.304C87.2155 119.664 87.3861 118.907 87.3861 118.032C87.3861 117.157 87.2101 116.405 86.8581 115.776C86.5168 115.136 86.0368 114.64 85.4181 114.288C84.7995 113.936 84.0688 113.76 83.2261 113.76H81.1781V122.32ZM99.4024 124.192C98.6557 124.192 97.9624 124.053 97.3224 123.776C96.6824 123.488 96.1384 123.099 95.6904 122.608C95.2424 122.117 94.9117 121.552 94.6984 120.912L96.2984 120.24C96.5864 120.976 97.0077 121.541 97.5624 121.936C98.117 122.331 98.757 122.528 99.4824 122.528C99.909 122.528 100.282 122.464 100.602 122.336C100.922 122.197 101.168 122.005 101.338 121.76C101.52 121.515 101.61 121.232 101.61 120.912C101.61 120.475 101.488 120.128 101.242 119.872C100.997 119.616 100.634 119.413 100.154 119.264L97.9144 118.56C97.0184 118.283 96.3357 117.861 95.8664 117.296C95.397 116.72 95.1624 116.048 95.1624 115.28C95.1624 114.608 95.3277 114.021 95.6584 113.52C95.989 113.008 96.4424 112.608 97.0184 112.32C97.605 112.032 98.2717 111.888 99.0184 111.888C99.733 111.888 100.384 112.016 100.97 112.272C101.557 112.517 102.058 112.859 102.474 113.296C102.901 113.733 103.21 114.24 103.402 114.816L101.834 115.504C101.6 114.875 101.232 114.389 100.73 114.048C100.24 113.707 99.669 113.536 99.0184 113.536C98.6237 113.536 98.277 113.605 97.9784 113.744C97.6797 113.872 97.445 114.064 97.2744 114.32C97.1144 114.565 97.0344 114.853 97.0344 115.184C97.0344 115.568 97.157 115.909 97.4024 116.208C97.6477 116.507 98.021 116.731 98.5224 116.88L100.602 117.536C101.552 117.824 102.266 118.24 102.746 118.784C103.226 119.317 103.466 119.984 103.466 120.784C103.466 121.445 103.29 122.032 102.938 122.544C102.597 123.056 102.122 123.461 101.514 123.76C100.906 124.048 100.202 124.192 99.4024 124.192ZM110.69 124.192C109.804 124.192 109.015 124.005 108.322 123.632C107.639 123.259 107.1 122.747 106.706 122.096C106.322 121.445 106.13 120.704 106.13 119.872V112.08H108.018V119.792C108.018 120.315 108.13 120.779 108.354 121.184C108.588 121.589 108.903 121.904 109.298 122.128C109.703 122.352 110.167 122.464 110.69 122.464C111.223 122.464 111.687 122.352 112.082 122.128C112.487 121.904 112.802 121.589 113.026 121.184C113.26 120.779 113.378 120.315 113.378 119.792V112.08H115.25V119.872C115.25 120.704 115.058 121.445 114.674 122.096C114.29 122.747 113.751 123.259 113.058 123.632C112.375 124.005 111.586 124.192 110.69 124.192ZM123.84 124.192C122.998 124.192 122.214 124.037 121.488 123.728C120.774 123.419 120.144 122.992 119.6 122.448C119.067 121.893 118.651 121.243 118.352 120.496C118.054 119.749 117.904 118.928 117.904 118.032C117.904 117.147 118.048 116.331 118.336 115.584C118.635 114.827 119.051 114.176 119.584 113.632C120.118 113.077 120.742 112.651 121.456 112.352C122.171 112.043 122.955 111.888 123.808 111.888C124.651 111.888 125.403 112.032 126.064 112.32C126.736 112.608 127.302 112.987 127.76 113.456C128.219 113.915 128.55 114.416 128.752 114.96L127.072 115.776C126.827 115.125 126.422 114.603 125.856 114.208C125.291 113.803 124.608 113.6 123.808 113.6C123.019 113.6 122.32 113.787 121.712 114.16C121.104 114.533 120.63 115.051 120.288 115.712C119.958 116.373 119.792 117.147 119.792 118.032C119.792 118.917 119.963 119.696 120.304 120.368C120.656 121.029 121.136 121.547 121.744 121.92C122.352 122.283 123.051 122.464 123.84 122.464C124.502 122.464 125.104 122.331 125.648 122.064C126.203 121.787 126.646 121.403 126.976 120.912C127.307 120.411 127.472 119.829 127.472 119.168V118.352L128.32 119.12H123.808V117.52H129.344V118.64C129.344 119.515 129.195 120.299 128.896 120.992C128.598 121.675 128.192 122.256 127.68 122.736C127.168 123.216 126.582 123.579 125.92 123.824C125.259 124.069 124.566 124.192 123.84 124.192ZM130.778 124L134.97 112.08H137.306L141.498 124H139.482L138.57 121.328H133.722L132.794 124H130.778ZM134.266 119.648H137.994L135.882 113.408H136.41L134.266 119.648ZM143.552 124V112.08H147.888C148.688 112.08 149.392 112.229 150 112.528C150.608 112.816 151.083 113.243 151.424 113.808C151.776 114.363 151.952 115.029 151.952 115.808C151.952 116.629 151.744 117.333 151.328 117.92C150.923 118.507 150.373 118.933 149.68 119.2L152.432 124H150.288L147.36 118.8L148.592 119.52H145.44V124H143.552ZM145.44 117.84H147.92C148.357 117.84 148.736 117.755 149.056 117.584C149.376 117.413 149.621 117.179 149.792 116.88C149.973 116.571 150.064 116.208 150.064 115.792C150.064 115.376 149.973 115.019 149.792 114.72C149.621 114.411 149.376 114.176 149.056 114.016C148.736 113.845 148.357 113.76 147.92 113.76H145.44V117.84Z" fill="#FAF8F7"/>
</svg>
