<svg width="96" height="96" viewBox="0 0 96 96" fill="none" xmlns="http://www.w3.org/2000/svg">
<path fill-rule="evenodd" clip-rule="evenodd" d="M14.0589 81.9411C32.804 100.686 63.196 100.686 81.9411 81.9411C100.686 63.196 100.686 32.804 81.9411 14.0589C63.196 -4.68629 32.804 -4.68629 14.0589 14.0589C-4.68629 32.804 -4.68629 63.196 14.0589 81.9411ZM14.766 81.234C33.0026 99.4707 62.4972 99.5879 80.8786 81.5857L69.9013 70.6084L63 74.0591L48 66.5591L33 74.0591L17.5 66.3091V48.191L32.5 40.691V33.2071L14.4143 15.1214C-3.5879 33.5028 -3.47066 62.9974 14.766 81.234ZM48.5 65.691L62.5 72.691V63.2071L48.7039 49.411L48.5 49.3091V65.691ZM51.5324 50.8253L62.5 61.7929V56.3091L51.5324 50.8253ZM63.5 64.2071V72.691L69.156 69.8631L63.5 64.2071ZM70.0988 69.3917L63.5 62.7929V56.3091L77.5 49.3091V65.691L70.0988 69.3917ZM70.8441 70.137L81.5857 80.8786C99.5879 62.4972 99.4707 33.0026 81.234 14.766C62.9974 -3.47066 33.5028 -3.5879 15.1214 14.4143L32.5 31.7929V23.191L48 15.441L63.5 23.191V40.691L78.5 48.191V66.3091L70.8441 70.137ZM63 41.5591L49.1774 48.4703L49.2963 48.5892L63 55.441L76.882 48.5001L63 41.5591ZM62.5 40.691V24.309L48.5 31.309V47.691L62.5 40.691ZM46.4678 47.1749L33.5 40.691V34.2071L46.4678 47.1749ZM19.118 48.5001L33 41.5591L46.882 48.5001L33 55.441L19.118 48.5001ZM47.5 46.7929L33.5 32.7929V24.309L47.5 31.309V46.7929ZM61.882 23.5L48 30.441L34.118 23.5L48 16.559L61.882 23.5ZM18.5 49.3091L32.5 56.3091V72.691L18.5 65.691V49.3091ZM33.5 72.691L47.5 65.691V49.3091L33.5 56.3091V72.691Z" fill="#FAF8F7"/>
</svg>
