<svg viewBox="0 0 24 24" fill="none" xmlns="http://www.w3.org/2000/svg">
<g clip-path="url(#clip0_3251_23828)">
<mask id="mask0_3251_23828" style="mask-type:luminance" maskUnits="userSpaceOnUse" x="0" y="0" width="24" height="24">
<path d="M18.9556 5.77349C17.6518 5.17718 16.2671 4.74257 14.8218 4.5C14.6399 4.81332 14.4377 5.23781 14.2962 5.57135C12.759 5.34899 11.2328 5.34899 9.71672 5.57135C9.57521 5.23781 9.36295 4.81332 9.19112 4.5C7.73573 4.74257 6.35105 5.17718 5.05634 5.77349C2.4386 9.63439 1.73111 13.4043 2.08485 17.1237C3.82327 18.3871 5.50107 19.1553 7.14953 19.6607C7.55382 19.1148 7.91768 18.5286 8.231 17.9121C7.63468 17.6897 7.06868 17.4168 6.5229 17.0934C6.6644 16.9924 6.8059 16.8812 6.93729 16.77C10.2322 18.276 13.801 18.276 17.0555 16.77C17.197 16.8812 17.3284 16.9924 17.4699 17.0934C16.9241 17.4168 16.3581 17.6897 15.7618 17.9121C16.0751 18.5286 16.439 19.1148 16.8432 19.6607C18.4907 19.1553 20.1786 18.3871 21.9079 17.1237C22.3425 12.8182 21.2196 9.07854 18.9556 5.77349ZM8.68581 14.8294C7.6953 14.8294 6.88674 13.9299 6.88674 12.8283C6.88674 11.7266 7.67509 10.827 8.68581 10.827C9.68639 10.827 10.505 11.7266 10.4848 12.8283C10.4848 13.9299 9.68639 14.8294 8.68581 14.8294ZM15.3272 14.8294C14.3367 14.8294 13.5271 13.9299 13.5271 12.8283C13.5271 11.7266 14.3164 10.827 15.3272 10.827C16.3278 10.827 17.1464 11.7266 17.1262 12.8283C17.1262 13.9299 16.3379 14.8294 15.3272 14.8294Z" fill="white"/>
</mask>
<g mask="url(#mask0_3251_23828)">
<rect width="24" height="24" fill="black"/>
</g>
</g>
<defs>
<clipPath id="clip0_3251_23828">
<rect width="24" height="24" fill="white"/>
</clipPath>
</defs>
</svg>
