<svg viewBox="0 0 24 24" fill="none" xmlns="http://www.w3.org/2000/svg">
<g clip-path="url(#clip0_3251_24615)">
<mask id="mask0_3251_24615" style="mask-type:luminance" maskUnits="userSpaceOnUse" x="0" y="0" width="24" height="24">
<path fill-rule="evenodd" clip-rule="evenodd" d="M14.5376 2.74277L4.1315 3.51131C3.29212 3.58403 3 4.13254 3 4.79013V16.1979C3 16.7101 3.18179 17.1483 3.6206 17.7338L6.06666 20.9145C6.46848 21.4267 6.83395 21.5364 7.60124 21.5L19.6854 20.7685C20.7073 20.6958 21 20.22 21 19.4157V6.58173C21 6.16612 20.8358 6.04638 20.3524 5.69157C20.3246 5.67154 20.2968 5.65148 20.2691 5.63139L16.9479 3.29128C16.1442 2.70704 15.8158 2.63307 14.5376 2.74277ZM7.87456 6.37173C6.88786 6.43818 6.66407 6.45322 6.10364 5.99749L4.67876 4.8641C4.53396 4.71741 4.60667 4.53437 4.97151 4.49801L14.9751 3.76708C15.8151 3.69373 16.2527 3.98648 16.5812 4.24225L18.2969 5.48533C18.3703 5.52232 18.5527 5.7411 18.3333 5.7411L8.00244 6.36295L7.87456 6.37173ZM6.72425 19.306V8.41094C6.72425 7.93515 6.87031 7.71574 7.30786 7.67876L19.1733 6.98418C19.5757 6.94783 19.7575 7.20359 19.7575 7.67876V18.5011C19.7575 18.9769 19.6842 19.3793 19.0272 19.4157L7.6727 20.0739C7.01574 20.1103 6.72425 19.8915 6.72425 19.306ZM17.9327 8.99519C18.0054 9.3243 17.9327 9.65341 17.6036 9.69102L17.0563 9.79947V17.8435C16.5812 18.0992 16.1436 18.2453 15.7782 18.2453C15.1939 18.2453 15.0479 18.0623 14.6103 17.5144L11.0315 11.8838V17.3313L12.1636 17.5877C12.1636 17.5877 12.1636 18.2459 11.2503 18.2459L8.73212 18.392C8.65877 18.2453 8.73212 17.8798 8.98725 17.8071L9.64484 17.6247V10.4219L8.73212 10.348C8.65877 10.0189 8.84119 9.5437 9.35272 9.50672L12.0545 9.32492L15.7782 15.0282V9.98251L14.8291 9.87344C14.7557 9.47036 15.0479 9.17761 15.4127 9.14188L17.9327 8.99519Z" fill="white"/>
</mask>
<g mask="url(#mask0_3251_24615)">
<rect width="24" height="24" fill="black"/>
</g>
</g>
<defs>
<clipPath id="clip0_3251_24615">
<rect width="24" height="24" fill="white"/>
</clipPath>
</defs>
</svg>
