<svg viewBox="0 0 24 24" fill="none" xmlns="http://www.w3.org/2000/svg">
<g id="logo/slender">
<path id="Logo-Fin" d="M17.1382 9.60273C16.7373 9.32454 16.4018 8.93182 16.1973 8.49V8.48182C15.96 7.98273 15.96 7.37728 15.96 6.16638V5.59954C15.96 5.42556 15.8356 5.27647 15.6644 5.24535C15.4434 5.20517 15.24 5.37493 15.24 5.59954V6.03545C15.24 7.24636 15.24 7.85182 15.0027 8.26909C14.7982 8.63727 14.4709 8.91545 14.0618 9.04636C13.6036 9.20182 12.9982 9.09545 11.7873 8.87455L11.3369 8.79381C11.1196 8.75487 10.92 8.92188 10.92 9.14261C10.92 9.31419 11.0429 9.46113 11.2118 9.4914L11.7873 9.59455L11.8483 9.60567C13.0186 9.81912 13.6114 9.92722 14.0618 10.2409C14.4627 10.5191 14.7982 10.9118 15.0027 11.3536C15.24 11.8527 15.24 12.4582 15.24 13.6691V14.2359C15.24 14.4099 15.3644 14.559 15.5356 14.5901C15.7566 14.6303 15.96 14.4605 15.96 14.2359V13.8C15.96 12.5891 15.96 11.9836 16.1973 11.5664C16.4018 11.1982 16.7291 10.92 17.1382 10.7891C17.5964 10.6336 18.2018 10.74 19.4127 10.9609C19.5136 10.9791 19.5641 10.9882 19.6082 10.9985C20.3904 11.1806 20.9574 11.859 20.9977 12.6612C21 12.7064 21 12.7576 21 12.8602V17.544C21 18.7537 21 19.3586 20.7646 19.8206C20.5575 20.227 20.227 20.5575 19.8206 20.7646C19.3586 21 18.7537 21 17.544 21H6.456C5.24629 21 4.64143 21 4.17938 20.7646C3.77295 20.5575 3.44251 20.227 3.23543 19.8206C3 19.3586 3 18.7537 3 17.544V15.8402C3 15.1308 3 14.7761 3.14511 14.5252C3.27242 14.3051 3.47333 14.1369 3.71244 14.0504C3.98497 13.9517 4.33413 14.0142 5.03244 14.1392L5.88 14.2909C6.55091 14.4055 6.88636 14.4709 7.14818 14.6264C7.5 14.8309 7.77818 15.1664 7.92545 15.5427C8.01461 15.7827 8.02903 16.0573 8.03137 16.5349C8.03222 16.7089 8.15624 16.8581 8.32742 16.8892C8.5484 16.9294 8.75065 16.7594 8.75332 16.5349C8.75804 16.1384 8.77755 15.9006 8.85818 15.7145C9.00545 15.3873 9.28364 15.1582 9.63545 15.0764C9.89727 15.0191 10.2327 15.0764 10.9036 15.1991L11.2061 15.2541C11.4235 15.2936 11.6236 15.1266 11.6236 14.9056C11.6236 14.7344 11.5012 14.5877 11.3328 14.5571L10.9036 14.4791C10.2327 14.3645 9.89727 14.2991 9.63545 14.1436C9.28364 13.9391 9.00545 13.6036 8.85818 13.2273C8.76903 12.9873 8.7546 12.7127 8.75227 12.2351C8.75142 12.0611 8.6274 11.9119 8.45622 11.8808C8.23524 11.8406 8.03299 12.0106 8.03031 12.2351C8.02559 12.6316 8.00609 12.8694 7.92545 13.0555C7.77818 13.3827 7.5 13.6118 7.14818 13.6936C6.88636 13.7509 6.55091 13.6936 5.88 13.5709L5.37261 13.4801C4.52885 13.3291 4.10698 13.2536 3.79077 13.0395C3.512 12.8507 3.29175 12.5875 3.15505 12.2799C3 11.9309 3 11.5023 3 10.6451V6.456C3 5.24629 3 4.64143 3.23543 4.17938C3.44251 3.77295 3.77295 3.44251 4.17938 3.23543C4.64143 3 5.24629 3 6.456 3H17.544C18.7537 3 19.3586 3 19.8206 3.23543C20.227 3.44251 20.5575 3.77295 20.7646 4.17938C21 4.64143 21 5.24629 21 6.456V8.92256C21 9.21473 21 9.36082 20.9747 9.4757C20.8689 9.95552 20.4526 10.3035 19.9616 10.3224C19.844 10.3269 19.7003 10.301 19.4127 10.2491L19.3517 10.238C18.1814 10.0245 17.5886 9.91642 17.1382 9.60273Z" fill="black"/>
</g>
</svg>
