<svg width="24" height="24" viewBox="0 0 24 24" fill="none" xmlns="http://www.w3.org/2000/svg">
<g clip-path="url(#clip0_2096_27352)">
<mask id="mask0_2096_27352" style="mask-type:luminance" maskUnits="userSpaceOnUse" x="0" y="0" width="24" height="24">
<path d="M17.1095 14.0935C16.4562 13.7148 15.7193 13.6056 14.9891 13.5818C14.3768 13.5613 13.4641 13.1689 13.4641 12.0464C13.4676 11.6421 13.6291 11.2552 13.914 10.9683C14.199 10.6815 14.5848 10.5174 14.9891 10.5112C15.7193 10.4856 16.4562 10.3764 17.1095 9.99944C17.6961 9.65974 18.1831 9.17169 18.5215 8.58428C18.8598 7.99687 19.0377 7.33078 19.0372 6.65289C19.0366 5.975 18.8578 5.30917 18.5185 4.72227C18.1793 4.13536 17.6916 3.64804 17.1045 3.30922C16.5174 2.97041 15.8514 2.79203 15.1736 2.79199C14.4956 2.79197 13.8297 2.97029 13.2425 3.30905C12.6553 3.64781 12.1676 4.13509 11.8284 4.72197C11.4891 5.30884 11.3102 5.97465 11.3096 6.65254C11.3096 7.40141 11.5757 8.09058 11.9168 8.73027C12.2018 9.26762 12.3467 10.2656 11.3659 10.8302C11.0113 11.0274 10.5937 11.078 10.2024 10.9707C9.81107 10.8636 9.47734 10.6074 9.27279 10.257C8.88897 9.64291 8.41986 9.06292 7.77675 8.69275C7.18936 8.35393 6.52315 8.17567 5.84504 8.17587C5.16694 8.17607 4.50083 8.35474 3.91364 8.69391C3.32645 9.03308 2.83887 9.5208 2.49988 10.1081C2.16088 10.6954 1.98242 11.3615 1.98242 12.0396C1.98242 12.7177 2.16088 13.3839 2.49988 13.9712C2.83887 14.5585 3.32645 15.0463 3.91364 15.3854C4.50083 15.7245 5.16694 15.9032 5.84504 15.9035C6.52315 15.9036 7.18936 15.7254 7.77675 15.3866C8.42498 15.0113 8.88897 14.4364 9.27279 13.8223C9.58837 13.3105 10.3748 12.6759 11.3659 13.2491C11.714 13.4576 11.9665 13.7943 12.0692 14.187C12.1719 14.5795 12.1166 14.9967 11.9152 15.349C11.574 15.9887 11.3096 16.6779 11.3096 17.4268C11.3097 18.1052 11.4882 18.7717 11.8274 19.3593C12.1667 19.9467 12.6546 20.4347 13.2421 20.774C13.8296 21.1132 14.4961 21.2919 15.1745 21.292C15.853 21.2921 16.5194 21.1136 17.1071 20.7745C17.6947 20.4354 18.1827 19.9477 18.5222 19.3602C18.8615 18.7727 19.0403 18.1064 19.0405 17.4279C19.0408 16.7494 18.8625 16.0829 18.5235 15.4952C18.1845 14.9075 17.6969 14.4194 17.1095 14.0798V14.0935Z" fill="white"/>
</mask>
<g mask="url(#mask0_2096_27352)">
<rect width="24" height="24" fill="white"/>
</g>
</g>
<defs>
<clipPath id="clip0_2096_27352">
<rect width="24" height="24" fill="white"/>
</clipPath>
</defs>
</svg>
