<svg width="24" height="24" viewBox="0 0 24 24" fill="none" xmlns="http://www.w3.org/2000/svg">
<g clip-path="url(#clip0_2096_33251)">
<mask id="mask0_2096_33251" style="mask-type:luminance" maskUnits="userSpaceOnUse" x="0" y="0" width="24" height="24">
<path d="M23 3.80494V5.66337L1 16.6246V14.7653L1.79954 14.3667C2.09713 14.2184 2.34323 13.9874 2.50686 13.7027C2.6705 13.418 2.74436 13.0923 2.71916 12.7667C2.70116 12.5367 2.69216 12.3059 2.69216 12.0741C2.69199 10.396 3.16634 8.75046 4.06281 7.31944C4.95928 5.88842 6.24294 4.72761 7.77193 3.96532C9.30092 3.20303 11.0157 2.86893 12.7267 2.99995C14.4378 3.13098 16.0784 3.72202 17.4674 4.70776L15.725 5.576C14.5659 4.94305 13.2578 4.61716 11.9303 4.63061C10.6028 4.64406 9.30193 4.99639 8.15652 5.65269C7.01112 6.30899 6.06094 7.2465 5.40011 8.37234C4.73928 9.49818 4.39073 10.7733 4.38898 12.0714C4.38912 12.3967 4.41088 12.7217 4.45414 13.0443L23 3.80494Z" fill="white"/>
<path d="M5.63344 16.1696L23 7.52361V9.37658L22.1995 9.7752C21.9022 9.92369 21.6564 10.1548 21.4929 10.4394C21.3295 10.7241 21.2557 11.0496 21.2808 11.3752C21.2985 11.6063 21.3078 11.8402 21.3078 12.0741C21.3073 13.752 20.8323 15.3971 19.9355 16.8276C19.0386 18.2581 17.7548 19.4184 16.2258 20.1802C14.6968 20.9419 12.9822 21.2756 11.2714 21.1442C9.56064 21.0129 7.92031 20.4217 6.53165 19.4359L8.17541 18.6168L8.26849 18.5686C9.42781 19.2042 10.737 19.5322 12.0661 19.5202C13.3951 19.5081 14.6978 19.1564 15.8449 18.4999C16.992 17.8433 17.9435 16.9049 18.6049 15.7777C19.2664 14.6505 19.6148 13.3737 19.6157 12.0741C19.6156 11.7467 19.5938 11.4196 19.5505 11.0948L1 20.3369V18.4794L5.63344 16.1696Z" fill="white"/>
</mask>
<g mask="url(#mask0_2096_33251)">
<rect width="24" height="24" fill="white"/>
</g>
</g>
<defs>
<clipPath id="clip0_2096_33251">
<rect width="24" height="24" fill="white"/>
</clipPath>
</defs>
</svg>
