<svg viewBox="0 0 48 48" fill="none" xmlns="http://www.w3.org/2000/svg">
<g id="logo/freighter">
<path id="Union" fill-rule="evenodd" clip-rule="evenodd" d="M13.9799 6C17.6753 6 20.7816 8.51381 21.6887 11.9247L21.6921 11.9314H42.0033V16.0351H39.359V22.636H35.3322V16.0351H32.6912V22.636H28.6644V16.0351H21.6921C20.7849 19.446 17.6753 21.9598 13.9799 21.9598C9.57155 21.9598 6 18.3883 6 13.9799C6 9.57155 9.57155 6 13.9799 6ZM10.01 13.9766C10.01 16.169 11.7874 17.9431 13.9766 17.9431C16.169 17.9431 17.9431 16.169 17.9431 13.9766C17.9431 11.7841 16.169 10.01 13.9766 10.01C11.7841 10.01 10.01 11.7841 10.01 13.9766ZM34.0234 42C30.3247 42 27.2184 39.4862 26.3113 36.0753V36.0686H6V31.9649H8.64435V25.364H12.6711V31.9649H15.3121V25.364H19.3389V31.9649H26.3113C27.2184 28.554 30.328 26.0402 34.0234 26.0402C38.4318 26.0402 42.0033 29.6117 42.0033 34.0201C42.0033 38.4285 38.4285 42 34.0234 42ZM37.99 34.0234C37.99 31.831 36.2126 30.0569 34.0234 30.0569C31.831 30.0569 30.0569 31.831 30.0569 34.0234C30.0569 36.2159 31.831 37.99 34.0234 37.99C36.2159 37.99 37.99 36.2159 37.99 34.0234Z" fill="url(#paint0_linear_2177_2451)"/>
</g>
<defs>
<linearGradient id="paint0_linear_2177_2451" x1="42.0033" y1="6" x2="6.00335" y2="42.0033" gradientUnits="userSpaceOnUse">
<stop stop-color="#CDADFF"/>
<stop offset="1" stop-color="#6432F1"/>
</linearGradient>
</defs>
</svg>
