<svg viewBox="0 0 110 24" fill="none" xmlns="http://www.w3.org/2000/svg">
<path d="M15.7091 9.33636C15.2636 9.02727 14.8909 8.59091 14.6636 8.1V8.09091C14.4 7.53637 14.4 6.86364 14.4 5.5182V4.88838C14.4 4.69506 14.2618 4.52941 14.0716 4.49483C13.826 4.45019 13.6 4.63881 13.6 4.88838V5.37273C13.6 6.71818 13.6 7.39091 13.3364 7.85455C13.1091 8.26364 12.7455 8.57273 12.2909 8.71818C11.7818 8.89091 11.1091 8.77273 9.76364 8.52727L9.26319 8.43757C9.02179 8.3943 8.8 8.57987 8.8 8.82512C8.8 9.01577 8.9366 9.17903 9.12426 9.21267L9.76364 9.32727L9.8314 9.33963C11.1318 9.5768 11.7904 9.69691 12.2909 10.0455C12.7364 10.3545 13.1091 10.7909 13.3364 11.2818C13.6 11.8364 13.6 12.5091 13.6 13.8545V14.4844C13.6 14.6777 13.7382 14.8433 13.9284 14.8779C14.174 14.9225 14.4 14.7339 14.4 14.4844V14C14.4 12.6546 14.4 11.9818 14.6636 11.5182C14.8909 11.1091 15.2545 10.8 15.7091 10.6545C16.2182 10.4818 16.8909 10.6 18.2364 10.8455C18.3485 10.8657 18.4046 10.8758 18.4535 10.8872C19.3227 11.0896 19.9527 11.8433 19.9975 12.7346C20 12.7848 20 12.8418 20 12.9557V18.16C20 19.5041 20 20.1762 19.7384 20.6896C19.5083 21.1412 19.1412 21.5083 18.6896 21.7384C18.1762 22 17.5041 22 16.16 22H3.84C2.49587 22 1.82381 22 1.31042 21.7384C0.858834 21.5083 0.49168 21.1412 0.261584 20.6896C0 20.1762 0 19.5041 0 18.16V16.2669C0 15.4786 0 15.0845 0.161232 14.8058C0.302694 14.5612 0.525924 14.3744 0.791604 14.2782C1.09442 14.1686 1.48236 14.238 2.25826 14.3769L3.2 14.5455C3.94545 14.6727 4.31818 14.7455 4.60909 14.9182C5 15.1455 5.30909 15.5182 5.47273 15.9364C5.57178 16.2031 5.58781 16.5081 5.59041 17.0388C5.59135 17.2321 5.72916 17.3979 5.91935 17.4324C6.16489 17.4771 6.38961 17.2883 6.39258 17.0387C6.39783 16.5982 6.4195 16.334 6.50909 16.1273C6.67273 15.7636 6.98182 15.5091 7.37273 15.4182C7.66364 15.3545 8.03636 15.4182 8.78182 15.5545L9.11787 15.6156C9.35945 15.6596 9.58182 15.474 9.58182 15.2284C9.58182 15.0382 9.4458 14.8753 9.25867 14.8412L8.78182 14.7545C8.03636 14.6273 7.66364 14.5545 7.37273 14.3818C6.98182 14.1545 6.67273 13.7818 6.50909 13.3636C6.41003 13.0969 6.394 12.7919 6.39141 12.2612C6.39047 12.0679 6.25266 11.9021 6.06247 11.8676C5.81693 11.8229 5.59221 12.0117 5.58924 12.2613C5.58399 12.7018 5.56232 12.966 5.47273 13.1727C5.30909 13.5364 5 13.7909 4.60909 13.8818C4.31818 13.9455 3.94545 13.8818 3.2 13.7455L2.63623 13.6446C1.69873 13.4768 1.22997 13.3929 0.878634 13.155C0.568887 12.9452 0.32417 12.6528 0.172283 12.311C0 11.9232 0 11.447 0 10.4946V5.84C0 4.49587 0 3.82381 0.261584 3.31042C0.49168 2.85883 0.858834 2.49168 1.31042 2.26158C1.82381 2 2.49587 2 3.84 2H16.16C17.5041 2 18.1762 2 18.6896 2.26158C19.1412 2.49168 19.5083 2.85883 19.7384 3.31042C20 3.82381 20 4.49587 20 5.84V8.58062C20 8.90525 20 9.06757 19.9719 9.19522C19.8543 9.72835 19.3917 10.115 18.8462 10.136C18.7156 10.141 18.5558 10.1122 18.2364 10.0545L18.1686 10.0422C16.8682 9.80502 16.2096 9.68491 15.7091 9.33636Z" fill="black"/>
<path d="M34.8999 11.6606C34.1999 11.2515 33.318 10.9697 32.2726 10.8242L29.8908 10.497C29.1271 10.3788 28.4817 10.197 27.9726 9.94242C27.4635 9.68788 27.0817 9.37879 26.8362 8.98788C26.5817 8.60606 26.4635 8.15152 26.4635 7.63333C26.4635 6.99697 26.6271 6.44242 26.9635 5.9697C27.2999 5.49697 27.7817 5.13333 28.418 4.87879C29.0544 4.62424 29.7817 4.50606 30.5999 4.50606C31.418 4.50606 32.1908 4.63333 32.818 4.87879C33.4453 5.13333 33.9362 5.48788 34.2817 5.95152C34.6362 6.41515 34.818 6.97879 34.8362 7.63333H36.7908C36.7726 6.65152 36.518 5.79697 36.018 5.0697C35.518 4.34242 34.7999 3.78788 33.8635 3.40606C32.9271 3.02424 31.8362 2.83333 30.5817 2.83333C29.3271 2.83333 28.2908 3.03333 27.3726 3.43333C26.4544 3.83333 25.7453 4.40606 25.2544 5.15152C24.7635 5.89697 24.518 6.76061 24.518 7.74242C24.518 8.56061 24.6999 9.28788 25.0544 9.92424C25.409 10.5606 25.9544 11.0697 26.6817 11.4606C27.409 11.8515 28.309 12.1242 29.3726 12.2788L31.8271 12.6333C32.5453 12.7333 33.1544 12.9242 33.6453 13.197C34.1362 13.4697 34.4999 13.8242 34.7362 14.2606C34.9726 14.697 35.0908 15.197 35.0908 15.7606C35.0908 16.4606 34.909 17.0879 34.5544 17.6242C34.1908 18.1697 33.6817 18.5879 33.018 18.8879C32.3544 19.1879 31.5726 19.3424 30.6908 19.3424C29.6908 19.3424 28.8271 19.1788 28.0999 18.8515C27.3726 18.5242 26.8271 18.0697 26.4453 17.4879C26.0726 16.9061 25.8726 16.2061 25.8544 15.4061H23.8999C23.8999 16.5606 24.1726 17.5515 24.7271 18.397C25.2817 19.2424 26.0544 19.8879 27.0726 20.3333C28.0817 20.7879 29.2908 21.0061 30.6908 21.0061C31.9908 21.0061 33.1271 20.7879 34.0817 20.3424C35.0453 19.897 35.7726 19.2697 36.2817 18.4606C36.7908 17.6515 37.0453 16.7061 37.0453 15.6152C37.0453 14.7152 36.8635 13.9333 36.509 13.2606C36.1453 12.597 35.618 12.0515 34.918 11.6424L34.8999 11.6606Z" fill="black"/>
<path d="M42.4544 18.8606C42.3089 18.706 42.2453 18.4697 42.2453 18.1333V3.16058H40.4453V18.5606C40.4453 19.0606 40.518 19.4697 40.6725 19.7879C40.8271 20.106 41.0634 20.3333 41.3907 20.4788C41.718 20.6242 42.1453 20.6879 42.6816 20.6879H44.7816V19.0879H43.1816C42.8453 19.0879 42.6089 19.0151 42.4635 18.8606H42.4544Z" fill="black"/>
<path d="M105.755 8.81519C105.218 8.81519 104.791 8.88791 104.464 9.02428C104.136 9.16973 103.9 9.397 103.745 9.71519C103.591 10.0334 103.518 10.4425 103.518 10.9425V20.6879H105.318V11.3697C105.318 11.0334 105.391 10.797 105.527 10.6425C105.673 10.4879 105.909 10.4152 106.245 10.4152H110V8.81519H105.755Z" fill="black"/>
<path d="M68.8545 9.06972C68.1454 8.6879 67.3 8.49699 66.3091 8.49699C65.5727 8.49699 64.9 8.61517 64.2909 8.86063C63.6818 9.10608 63.1727 9.46972 62.7636 9.95153C62.5909 10.1515 62.4454 10.3879 62.3273 10.6334V8.82426H60.7V20.697H62.5V13.7879C62.5 13.0697 62.6545 12.4334 62.9545 11.8879C63.2545 11.3334 63.6727 10.9152 64.2091 10.6152C64.7454 10.3152 65.3454 10.1606 66.0091 10.1606C66.6727 10.1606 67.2727 10.2879 67.7454 10.5515C68.2182 10.8152 68.5909 11.2061 68.8636 11.7243C69.1273 12.2515 69.2636 12.9152 69.2636 13.7152V20.7061H71.0636V13.597C71.0636 12.4788 70.8727 11.5424 70.4909 10.7879C70.1091 10.0334 69.5636 9.46972 68.8545 9.0879V9.06972Z" fill="black"/>
<path fill-rule="evenodd" clip-rule="evenodd" d="M84.018 10.6242C83.8543 10.3333 83.6634 10.0697 83.4452 9.83331C83.0271 9.38786 82.5089 9.06058 81.8907 8.83331C81.2725 8.60604 80.5816 8.49695 79.8089 8.49695C78.7089 8.49695 77.7271 8.76058 76.8634 9.26967C75.9998 9.78786 75.327 10.5242 74.8452 11.4697C74.3634 12.4242 74.118 13.5151 74.118 14.7515C74.118 15.9879 74.3634 17.0788 74.8452 18.0333C75.327 18.9879 75.9998 19.7242 76.8634 20.2333C77.7271 20.7515 78.6998 21.006 79.8089 21.006C80.5907 21.006 81.2998 20.8879 81.9361 20.6424C82.5725 20.3969 83.0998 20.0515 83.527 19.5879C83.7998 19.2879 84.027 18.9515 84.218 18.5788V20.6788H85.8452V3.16058H84.018V10.6242ZM83.5816 17.1697C83.2543 17.8606 82.7907 18.3969 82.1816 18.7879C81.5725 19.1697 80.8634 19.3606 80.0634 19.3606C79.2634 19.3606 78.5543 19.1697 77.9452 18.7879C77.3361 18.406 76.8634 17.8697 76.518 17.1697C76.1725 16.4788 76.0089 15.6697 76.0089 14.7515C76.0089 13.8333 76.1816 13.0242 76.518 12.3242C76.8634 11.6242 77.3361 11.0879 77.9452 10.706C78.5543 10.3333 79.2634 10.1424 80.0634 10.1424C80.8634 10.1424 81.5725 10.3333 82.1816 10.706C82.7907 11.0788 83.2543 11.6242 83.5816 12.3242C83.9089 13.0242 84.0725 13.8333 84.0725 14.7515C84.0725 15.6697 83.9089 16.4788 83.5816 17.1697Z" fill="black"/>
<path fill-rule="evenodd" clip-rule="evenodd" d="M51.9543 8.49692C50.8543 8.49692 49.8725 8.75147 49.027 9.25147C48.1725 9.75147 47.5089 10.4697 47.027 11.406C46.5452 12.3424 46.2998 13.4424 46.2998 14.7151C46.2998 15.9878 46.5452 17.0969 47.027 18.0424C47.5089 18.9969 48.1998 19.7333 49.0816 20.2424C49.9634 20.7606 50.9816 21.0151 52.1361 21.0151C52.9998 21.0151 53.7816 20.8697 54.4634 20.5878C55.1452 20.306 55.727 19.8878 56.1998 19.3333C56.6089 18.8606 56.9179 18.306 57.1725 17.6878L55.4634 17.3787C55.1816 18.0424 54.7543 18.5515 54.1907 18.906C53.627 19.2606 52.9452 19.4333 52.1634 19.4333C51.327 19.4333 50.6089 19.2606 50.0089 18.906C49.4089 18.5515 48.9452 18.0515 48.6179 17.3878C48.3179 16.7878 48.1634 16.0878 48.1361 15.2969H57.4634C57.4998 15.0606 57.5179 14.8697 57.527 14.706C57.527 14.625 57.5295 14.544 57.5319 14.4669C57.5341 14.3969 57.5361 14.3302 57.5361 14.2697C57.5361 12.4969 57.027 11.0969 56.0179 10.0515C55.0089 9.00602 53.6543 8.48783 51.9452 8.48783L51.9543 8.49692ZM55.7089 13.7151V13.806H48.1361C48.1634 13.1242 48.3179 12.506 48.5998 11.9515C48.9179 11.3333 49.3634 10.8515 49.9361 10.5151C50.5089 10.1697 51.1816 10.006 51.9543 10.006C53.1089 10.006 54.0179 10.3424 54.6998 11.0242C55.3725 11.6969 55.7179 12.5697 55.7179 13.6424V13.7333L55.7089 13.7151Z" fill="black"/>
<path fill-rule="evenodd" clip-rule="evenodd" d="M94.7819 8.49692C93.6819 8.49692 92.7 8.75147 91.8546 9.25147C91 9.75147 90.3364 10.4697 89.8546 11.406C89.3728 12.3424 89.1273 13.4424 89.1273 14.7151C89.1273 15.9878 89.3728 17.0969 89.8546 18.0424C90.3364 18.9878 91.0273 19.7333 91.9091 20.2424C92.7909 20.7606 93.8091 21.0151 94.9637 21.0151C95.8273 21.0151 96.6091 20.8697 97.2909 20.5878C97.9728 20.306 98.5546 19.8878 99.0273 19.3333C99.4364 18.8606 99.7455 18.306 100 17.6878L98.291 17.3787C98.0091 18.0424 97.5819 18.5515 97.0182 18.906C96.4546 19.2606 95.7728 19.4333 94.991 19.4333C94.1546 19.4333 93.4364 19.2606 92.8364 18.906C92.2364 18.5515 91.7728 18.0515 91.4455 17.3878C91.1455 16.7878 90.991 16.0878 90.9637 15.2969H100.291C100.327 15.0606 100.345 14.8697 100.355 14.706C100.355 14.6254 100.357 14.5447 100.359 14.4679V14.4675L100.359 14.4669L100.359 14.466L100.36 14.4639C100.362 14.395 100.364 14.3293 100.364 14.2697C100.364 12.4969 99.8546 11.0969 98.8455 10.0515C97.8364 9.00602 96.4819 8.48783 94.7728 8.48783L94.7819 8.49692ZM98.5364 13.7151V13.806H90.9637C90.991 13.1242 91.1455 12.506 91.4273 11.9515C91.7455 11.3333 92.1909 10.8515 92.7637 10.5151C93.3364 10.1697 94.0091 10.006 94.7819 10.006C95.9364 10.006 96.8455 10.3424 97.5273 11.0242C98.2 11.6969 98.5455 12.5697 98.5455 13.6424V13.7333L98.5364 13.7151Z" fill="black"/>
</svg>
