<svg viewBox="0 0 24 24" fill="none" xmlns="http://www.w3.org/2000/svg">
<path fill-rule="evenodd" clip-rule="evenodd" d="M17 7C14.2386 7 12 9.23858 12 12C12 14.7614 14.2386 17 17 17H22V7H17ZM17 15C18.6569 15 20 13.6569 20 12C20 10.3431 18.6569 9 17 9C15.3431 9 14 10.3431 14 12C14 13.6569 15.3431 15 17 15Z" fill="black"/>
<circle opacity="0.6" cx="17" cy="12" r="3" fill="black"/>
<path opacity="0.4" fill-rule="evenodd" clip-rule="evenodd" d="M22 4H2V20H22V17H17C14.2386 17 12 14.7614 12 12C12 9.23858 14.2386 7 17 7H22V4Z" fill="black"/>
</svg>
